<?xml version="1.0" encoding="utf-8"?>
<!-- Generator: Adobe Illustrator 16.0.4, SVG Export Plug-In . SVG Version: 6.00 Build 0)  -->
<!DOCTYPE svg PUBLIC "-//W3C//DTD SVG 1.1//EN" "http://www.w3.org/Graphics/SVG/1.1/DTD/svg11.dtd">
<svg version="1.1" id="Layer_1" xmlns="http://www.w3.org/2000/svg" xmlns:xlink="http://www.w3.org/1999/xlink" x="0px" y="0px"
	 width="283.465px" height="290.922px" viewBox="0 0 283.465 290.922" enable-background="new 0 0 283.465 290.922"
	 xml:space="preserve">
<g>
	<g>
		<g>
			<path fill-rule="evenodd" clip-rule="evenodd" fill="#010202" d="M23.143,175.422c-0.079,0-0.158-0.021-0.23-0.064
				c-0.211-0.128-0.425-0.253-0.638-0.378c-0.461-0.271-0.938-0.55-1.395-0.854c-3.991-2.664-7.328-5.536-10.203-8.781
				c-4.936-5.57-8.091-12.054-9.376-19.268c-0.721-4.048-0.987-8.065-0.791-11.94c0.054-1.068,0.185-2.116,0.324-3.226
				c0.063-0.506,0.128-1.028,0.187-1.56c0.015-0.137,0.093-0.26,0.21-0.332c0.071-0.044,0.152-0.066,0.233-0.066
				c0.053,0,0.107,0.009,0.158,0.029c0.147,0.055,0.281,0.099,0.412,0.142c0.262,0.085,0.51,0.166,0.736,0.31
				c10.487,6.687,16.818,14.117,19.924,23.386c1.918,5.725,3,16.174,1.996,19.276c-0.06,0.184-0.231,0.309-0.425,0.309
				c-0.001,0-0.002,0-0.003,0c-0.195-0.001-0.366-0.129-0.424-0.315c-3.162-10.312-7.305-17.871-12.983-23.652
				c0.817,4.74,2.711,9.099,4.662,13.125c1.841,3.8,4.426,8.705,8.103,12.938c0.138,0.16,0.146,0.395,0.019,0.562l-0.137,0.183
				C23.413,175.359,23.279,175.422,23.143,175.422z"/>
			<path fill="#FFFFFF" d="M1.463,129.399c0.455,0.171,0.794,0.237,1.065,0.411c8.943,5.701,16.277,12.813,19.741,23.15
				c1.941,5.793,2.939,16.079,1.995,18.997c-2.89-9.426-6.933-17.978-14.051-24.78c0.66,5.202,2.652,9.938,4.9,14.578
				c2.247,4.637,4.762,9.115,8.167,13.037c-0.046,0.062-0.092,0.122-0.138,0.183c-0.673-0.405-1.363-0.786-2.015-1.222
				c-3.728-2.487-7.143-5.348-10.117-8.705c-4.858-5.483-7.981-11.809-9.271-19.05c-0.7-3.927-0.986-7.866-0.785-11.839
				C1.034,132.615,1.279,131.079,1.463,129.399 M1.463,128.505c-0.163,0-0.325,0.044-0.467,0.132
				c-0.235,0.145-0.391,0.39-0.421,0.664c-0.058,0.529-0.123,1.049-0.186,1.553c-0.14,1.118-0.271,2.174-0.326,3.259
				c-0.198,3.909,0.07,7.96,0.797,12.041c0.654,3.668,1.789,7.174,3.375,10.42c1.569,3.213,3.624,6.263,6.107,9.066
				c2.901,3.273,6.267,6.171,10.29,8.855c0.467,0.312,0.95,0.595,1.416,0.869c0.212,0.124,0.424,0.248,0.633,0.375
				c0.144,0.087,0.304,0.128,0.461,0.128c0.272,0,0.54-0.124,0.714-0.355l0.028-0.038l0.108-0.144
				c0.255-0.337,0.239-0.806-0.038-1.124c-1.913-2.204-4.555-5.654-8.038-12.842c-1.728-3.565-3.41-7.392-4.327-11.504
				c2.45,2.679,4.573,5.693,6.448,9.148c2.042,3.763,3.799,8.083,5.371,13.209c0.114,0.373,0.457,0.629,0.847,0.632
				c0.002,0,0.004,0,0.007,0c0.387,0,0.73-0.25,0.85-0.618c0.701-2.165,0.32-6.866,0.124-8.787
				c-0.409-3.999-1.202-8.025-2.121-10.77c-1.689-5.042-4.305-9.499-7.997-13.625c-3.186-3.561-7.147-6.831-12.11-9.995
				c-0.274-0.174-0.548-0.264-0.838-0.358c-0.125-0.041-0.254-0.083-0.392-0.135C1.677,128.524,1.57,128.505,1.463,128.505
				L1.463,128.505z"/>
		</g>
		<g>
			<path fill-rule="evenodd" clip-rule="evenodd" fill="#010202" d="M24.488,98.664c-0.172,0-0.333-0.1-0.407-0.263
				c-3.568-7.902-4.933-15.883-4.057-23.723c1.051-9.398,5.412-17.948,13.331-26.14c0.085-0.088,0.201-0.136,0.321-0.136
				c0.024,0,0.049,0.002,0.073,0.006c0.145,0.024,0.269,0.118,0.331,0.251c3.553,7.569,5.087,15.332,4.56,23.073
				c-0.595,8.731-4.187,16.866-10.981,24.868c-0.087,0.103-0.213,0.158-0.341,0.158c-0.073,0-0.147-0.018-0.216-0.056
				c-0.186-0.103-0.274-0.323-0.21-0.525c2.419-7.671,4.654-16.777,3.163-26.571c-2.106,4.26-3.142,8.915-3.94,13.345
				c-0.744,4.127-1.55,9.589-1.18,15.236c0.014,0.216-0.128,0.41-0.337,0.463C24.56,98.66,24.523,98.664,24.488,98.664z"/>
			<path fill="#FFFFFF" d="M33.676,48.849c3.415,7.274,5.062,14.87,4.518,22.853c-0.646,9.481-4.811,17.465-10.876,24.609
				c2.892-9.169,4.747-18.431,2.956-28.089c-2.531,4.581-3.686,9.583-4.599,14.649c-0.913,5.065-1.526,10.162-1.187,15.345
				c-3.379-7.484-4.934-15.319-4.02-23.489C21.61,64.519,26.605,56.163,33.676,48.849 M33.676,47.956
				c-0.24,0-0.473,0.097-0.643,0.272c-7.99,8.266-12.391,16.901-13.453,26.401c-0.454,4.06-0.317,8.184,0.408,12.257
				c0.689,3.874,1.929,7.81,3.686,11.698c0.147,0.326,0.469,0.526,0.814,0.526c0.072,0,0.145-0.009,0.217-0.027
				c0.419-0.104,0.703-0.494,0.675-0.925c-0.367-5.599,0.435-11.026,1.174-15.128c0.806-4.471,1.708-8.306,3.259-11.855
				c0.408,3.558,0.358,7.235-0.147,11.161c-0.529,4.105-1.545,8.46-3.2,13.707c-0.128,0.405,0.048,0.845,0.42,1.051
				c0.136,0.075,0.284,0.111,0.432,0.111c0.255,0,0.507-0.109,0.682-0.315c6.858-8.078,10.484-16.297,11.086-25.126
				c0.271-3.986,0.006-8-0.79-11.931c-0.767-3.787-2.049-7.61-3.811-11.363c-0.125-0.266-0.372-0.454-0.662-0.501
				C33.773,47.959,33.725,47.956,33.676,47.956L33.676,47.956z"/>
		</g>
		<g>
			<path fill-rule="evenodd" clip-rule="evenodd" fill="#010202" d="M17.685,136.854c-0.095,0-0.189-0.03-0.268-0.089
				c-0.056-0.042-0.115-0.08-0.175-0.119c-0.164-0.107-0.35-0.228-0.498-0.411c-3.016-3.725-5.156-6.951-6.735-10.153
				c-3.107-6.298-4.588-12.301-4.528-18.349c0.042-4.263,0.632-8.37,1.752-12.207c0.593-2.031,1.404-4.023,2.189-5.949
				c0.329-0.809,0.67-1.645,0.988-2.47c0.076-0.196,0.18-0.367,0.302-0.564c0.059-0.096,0.125-0.204,0.197-0.329
				c0.071-0.125,0.199-0.208,0.343-0.223c0.015-0.002,0.03-0.002,0.045-0.002c0.128,0,0.25,0.055,0.336,0.152
				c7.161,8.163,11.155,16.424,12.212,25.255c0.877,7.332-0.296,14.687-3.587,22.485c-0.071,0.168-0.235,0.273-0.412,0.273
				c-0.029,0-0.059-0.003-0.088-0.009c-0.208-0.042-0.358-0.224-0.359-0.437c-0.037-11.103-1.658-19.356-5.246-26.63
				c-0.036,0.168-0.066,0.332-0.085,0.496c-0.386,3.427-0.192,6.866,0.075,10.071c0.338,4.053,1.023,8.122,2.096,12.438
				c0.315,1.27,0.76,2.541,1.19,3.769c0.194,0.556,0.395,1.13,0.583,1.7l0.013,0.039c0.068,0.206,0.162,0.487,0.101,0.885
				c-0.024,0.155-0.127,0.286-0.272,0.345C17.799,136.844,17.742,136.854,17.685,136.854z"/>
			<path fill="#FFFFFF" d="M11.298,86.436c6.402,7.298,10.949,15.353,12.104,25.014c0.925,7.731-0.544,15.122-3.555,22.258
				c-0.032-9.569-1.199-18.868-5.622-27.482c-0.112,0.001-0.224,0.002-0.336,0.002c-0.089,0.433-0.213,0.861-0.263,1.298
				c-0.382,3.388-0.208,6.771,0.074,10.158c0.352,4.231,1.085,8.397,2.107,12.508c0.463,1.866,1.179,3.669,1.782,5.5
				c0.067,0.204,0.145,0.404,0.096,0.715c-0.2-0.149-0.441-0.265-0.593-0.453c-2.546-3.145-4.889-6.436-6.682-10.07
				c-2.817-5.711-4.546-11.688-4.481-18.147c0.041-4.125,0.589-8.163,1.735-12.086c0.835-2.859,2.088-5.596,3.165-8.384
				C10.922,87.025,11.085,86.809,11.298,86.436 M11.298,85.542c-0.03,0-0.06,0.001-0.09,0.004c-0.287,0.029-0.542,0.195-0.686,0.446
				c-0.067,0.118-0.129,0.219-0.189,0.317c-0.127,0.207-0.247,0.402-0.337,0.637c-0.317,0.821-0.657,1.656-0.985,2.462
				c-0.789,1.937-1.604,3.939-2.204,5.993c-1.132,3.876-1.728,8.024-1.771,12.327c-0.062,6.121,1.435,12.189,4.574,18.552
				c1.595,3.233,3.752,6.486,6.789,10.236c0.193,0.238,0.419,0.386,0.602,0.504c0.057,0.037,0.111,0.072,0.151,0.103
				c0.157,0.117,0.345,0.178,0.535,0.178c0.114,0,0.229-0.022,0.338-0.066c0.29-0.119,0.497-0.38,0.545-0.69
				c0.078-0.505-0.04-0.859-0.118-1.094l-0.012-0.038c-0.189-0.573-0.391-1.149-0.585-1.707c-0.427-1.219-0.868-2.48-1.178-3.729
				c-1.067-4.293-1.749-8.338-2.084-12.367c-0.237-2.854-0.417-5.893-0.177-8.933c1.532,3.408,2.646,7.059,3.391,11.094
				c0.756,4.096,1.132,8.655,1.149,13.94c0.001,0.425,0.301,0.79,0.718,0.873c0.059,0.012,0.118,0.018,0.176,0.018
				c0.353,0,0.681-0.21,0.823-0.546c3.322-7.872,4.505-15.301,3.619-22.712c-0.57-4.766-1.935-9.243-4.174-13.689
				c-2.006-3.984-4.67-7.846-8.146-11.808C11.799,85.652,11.554,85.542,11.298,85.542L11.298,85.542z"/>
		</g>
		<g>
			<path fill-rule="evenodd" clip-rule="evenodd" fill="#010202" d="M42.627,64.385c-0.204-0.001-0.38-0.141-0.43-0.338
				c-0.012-0.048-0.027-0.096-0.042-0.144c-0.039-0.131-0.083-0.28-0.097-0.446c-0.344-4.265-0.172-8.542,0.509-12.711
				c0.9-5.506,2.746-10.522,5.485-14.911c1.816-2.91,3.56-5.092,5.485-6.866c2.524-2.325,4.896-4.345,7.25-6.175
				c1.193-0.928,2.53-1.685,3.823-2.417c0.383-0.217,0.766-0.434,1.145-0.655c0.313-0.183,0.573-0.304,0.822-0.304
				c0.694,0,0.752,0.778,0.783,1.197c0.399,5.347,0.186,10.085-0.652,14.486c-1.303,6.843-4.058,12.842-8.189,17.831
				c-2.15,2.597-3.98,4.427-5.934,5.933c-1.574,1.213-3.195,2.417-4.762,3.582l-0.998,0.742c-0.165,0.123-0.343,0.188-0.5,0.247
				c-0.056,0.021-0.111,0.041-0.165,0.064c-0.058,0.025-0.119,0.038-0.179,0.038c-0.131,0-0.259-0.058-0.346-0.164
				c-0.127-0.155-0.135-0.375-0.021-0.539c5.011-7.173,9.841-15.118,11.318-24.627c-3.588,3.858-6.065,8.129-8.029,11.838
				c-2.099,3.965-4.435,8.73-5.842,14.009c-0.052,0.195-0.229,0.332-0.432,0.332C42.629,64.385,42.628,64.385,42.627,64.385z"/>
			<path fill="#FFFFFF" d="M66.577,19.865c0.229,0,0.297,0.244,0.338,0.783c0.359,4.816,0.261,9.61-0.646,14.37
				c-1.246,6.544-3.829,12.479-8.094,17.629c-1.768,2.135-3.657,4.164-5.862,5.863c-1.899,1.464-3.83,2.888-5.754,4.319
				c-0.166,0.124-0.384,0.175-0.577,0.26c5.404-7.736,10.076-15.717,11.453-25.209c0.024-0.167-0.076-0.352-0.155-0.683
				c-3.716,3.796-6.379,8.123-8.77,12.639c-2.385,4.506-4.546,9.107-5.879,14.103c-0.043-0.172-0.112-0.342-0.126-0.517
				c-0.34-4.221-0.178-8.424,0.505-12.604c0.86-5.262,2.591-10.209,5.423-14.747c1.54-2.466,3.271-4.805,5.409-6.774
				c2.324-2.142,4.727-4.212,7.222-6.151c1.513-1.176,3.252-2.067,4.918-3.039C66.253,19.949,66.443,19.865,66.577,19.865
				 M66.577,18.971L66.577,18.971c-0.35,0-0.671,0.146-1.047,0.365c-0.375,0.219-0.764,0.439-1.14,0.652
				c-1.307,0.74-2.658,1.505-3.876,2.453c-2.365,1.837-4.746,3.865-7.279,6.199c-1.956,1.802-3.723,4.013-5.562,6.958
				c-2.771,4.438-4.637,9.511-5.547,15.075c-0.688,4.206-0.86,8.519-0.514,12.819c0.017,0.213,0.071,0.394,0.115,0.539
				c0.013,0.042,0.025,0.083,0.036,0.125c0.1,0.395,0.453,0.672,0.86,0.675c0.002,0,0.004,0,0.006,0
				c0.404,0,0.759-0.272,0.863-0.663c1.396-5.235,3.718-9.972,5.805-13.915c1.753-3.313,3.919-7.076,6.923-10.579
				c-1.72,8.747-6.266,16.166-10.973,22.903c-0.229,0.328-0.212,0.769,0.042,1.078c0.174,0.212,0.43,0.327,0.691,0.327
				c0.121,0,0.243-0.024,0.359-0.076c0.037-0.016,0.087-0.035,0.14-0.054c0.167-0.062,0.396-0.146,0.612-0.307
				c0.332-0.247,0.664-0.494,0.997-0.741c1.569-1.166,3.191-2.372,4.769-3.587c1.981-1.527,3.833-3.377,6.005-6.001
				c2.134-2.578,3.919-5.435,5.305-8.493c1.331-2.937,2.333-6.146,2.979-9.539c0.845-4.44,1.061-9.217,0.659-14.603
				c-0.03-0.399-0.076-0.647-0.158-0.855C67.461,19.253,67.061,18.971,66.577,18.971L66.577,18.971z"/>
		</g>
		<g>
			<path fill-rule="evenodd" clip-rule="evenodd" fill="#010202" d="M40.12,210.15c-0.078-0.006-0.155-0.009-0.233-0.012
				c-0.19-0.006-0.405-0.014-0.621-0.064c-5.039-1.183-9.932-3.188-14.545-5.959c-3.564-2.142-6.677-4.742-9.249-7.729
				c-1.891-2.195-3.56-4.646-5.104-7.491c-1.671-3.081-3.01-6.512-4.34-11.124c-0.302-1.047-0.513-2.129-0.717-3.175l-0.081-0.409
				c-0.083-0.426-0.126-0.862,0.126-1.171c0.154-0.187,0.378-0.281,0.667-0.281c0.161,0,0.346,0.029,0.582,0.09
				c0.247,0.063,0.493,0.126,0.74,0.189c1.439,0.367,2.926,0.747,4.36,1.235c3.687,1.256,6.935,2.74,9.927,4.539
				c4.494,2.702,8.084,5.869,10.978,9.684c3.169,4.178,5.606,9.012,7.451,14.78c0.214,0.669,0.379,1.358,0.539,2.024
				c0.073,0.307,0.146,0.613,0.225,0.918c0.047,0.184-0.026,0.377-0.184,0.482l-0.17,0.114c-0.076,0.051-0.163,0.075-0.249,0.075
				c-0.14,0-0.277-0.065-0.364-0.188c-6.446-9.035-12.605-14.812-19.878-18.619c0.022,0.047,0.046,0.093,0.071,0.137
				c3.018,5.323,7.094,9.664,10.684,13.207c2.686,2.651,5.282,4.841,7.938,6.695c0.165,0.114,0.333,0.225,0.502,0.336
				c0.418,0.273,0.851,0.557,1.277,0.937c0.143,0.127,0.189,0.332,0.114,0.508c-0.07,0.166-0.233,0.272-0.411,0.272
				C40.142,210.151,40.131,210.15,40.12,210.15z"/>
			<path fill="#FFFFFF" d="M6.023,173.182c0.125,0,0.28,0.026,0.47,0.075c1.698,0.438,3.409,0.851,5.067,1.415
				c3.427,1.167,6.732,2.631,9.841,4.499c4.2,2.525,7.875,5.646,10.852,9.57c3.362,4.433,5.696,9.376,7.382,14.646
				c0.306,0.956,0.507,1.944,0.756,2.918c-0.057,0.038-0.113,0.076-0.17,0.114c-5.59-7.837-12.02-14.744-20.738-19.116
				c-0.077,0.056-0.153,0.111-0.23,0.167c0.135,0.316,0.24,0.649,0.409,0.946c2.851,5.028,6.674,9.272,10.758,13.305
				c2.489,2.456,5.126,4.739,7.996,6.743c0.563,0.394,1.166,0.73,1.737,1.239c-0.262-0.02-0.533-0.005-0.786-0.064
				c-5.119-1.202-9.914-3.202-14.417-5.907c-3.445-2.069-6.519-4.594-9.141-7.638c-1.959-2.276-3.615-4.77-5.05-7.413
				c-1.899-3.501-3.206-7.229-4.303-11.035c-0.335-1.162-0.555-2.358-0.789-3.547C5.541,173.453,5.621,173.182,6.023,173.182
				 M6.023,172.288c-0.534,0-0.845,0.241-1.011,0.444c-0.372,0.452-0.32,1.032-0.22,1.54l0.081,0.409
				c0.206,1.056,0.419,2.146,0.727,3.212c1.339,4.646,2.689,8.104,4.376,11.214c1.559,2.874,3.247,5.35,5.158,7.57
				c2.604,3.023,5.752,5.654,9.357,7.82c4.653,2.795,9.589,4.817,14.672,6.012c0.259,0.061,0.498,0.068,0.708,0.076
				c0.077,0.002,0.15,0.005,0.215,0.01c0.022,0.001,0.045,0.002,0.068,0.002c0.356,0,0.681-0.212,0.822-0.544
				c0.15-0.353,0.059-0.762-0.228-1.017c-0.451-0.401-0.897-0.693-1.33-0.977c-0.171-0.112-0.334-0.219-0.491-0.328
				c-2.635-1.84-5.212-4.014-7.88-6.646c-3.282-3.24-6.972-7.148-9.87-11.86c3.242,1.856,6.279,4.155,9.229,6.982
				c3.042,2.914,6.015,6.424,9.087,10.73c0.174,0.244,0.449,0.375,0.728,0.375c0.171,0,0.344-0.05,0.497-0.151l0.065-0.044
				l0.104-0.07c0.315-0.21,0.462-0.597,0.368-0.964c-0.077-0.301-0.151-0.611-0.223-0.911c-0.161-0.675-0.328-1.372-0.547-2.058
				c-1.861-5.816-4.321-10.695-7.521-14.914c-2.928-3.86-6.56-7.064-11.103-9.796c-3.02-1.815-6.295-3.313-10.013-4.579
				c-1.45-0.494-2.946-0.876-4.393-1.245c-0.247-0.063-0.493-0.126-0.739-0.189C6.443,172.321,6.223,172.288,6.023,172.288
				L6.023,172.288z"/>
		</g>
		<g>
			<path fill-rule="evenodd" clip-rule="evenodd" fill="#010202" d="M61.56,238.318c-6.725,0-12.651-1.214-18.119-3.71
				c-4.575-2.089-8.557-4.912-12.172-8.631c-3.25-3.342-6.132-7.342-8.812-12.229c-0.072-0.13-0.074-0.287-0.006-0.419
				c0.068-0.133,0.198-0.222,0.345-0.239c2.096-0.246,4.191-0.371,6.228-0.371c4.219,0,8.419,0.539,12.483,1.602
				c5.688,1.486,10.91,4.265,15.521,8.257c3.726,3.227,6.958,7.143,9.607,11.639c0.107,0.183,0.072,0.415-0.085,0.558
				c-0.084,0.076-0.192,0.115-0.3,0.115c-0.092,0-0.185-0.028-0.264-0.086c-8.817-6.455-16.371-9.981-24.292-11.312
				c3.175,3.125,6.92,5.442,11.479,7.89c5.204,2.794,9.657,4.637,14.013,5.799c0.209,0.056,0.348,0.254,0.33,0.469
				c-0.019,0.217-0.189,0.388-0.405,0.407C65.208,238.229,63.34,238.318,61.56,238.318z"/>
			<path fill="#FFFFFF" d="M29.024,213.167c4.203,0,8.31,0.524,12.371,1.586c12.307,3.217,20.318,11.987,24.855,19.69
				c-7.783-5.698-16.072-10.26-25.804-11.594c3.582,3.847,7.981,6.49,12.516,8.925c4.499,2.415,9.139,4.511,14.109,5.837
				c-1.849,0.169-3.687,0.26-5.511,0.26c-6.169,0-12.184-1.044-17.933-3.669c-9.373-4.279-15.802-11.593-20.778-20.668
				C24.934,213.29,26.99,213.167,29.024,213.167 M29.024,212.273c-2.054,0-4.167,0.126-6.28,0.374
				c-0.295,0.034-0.554,0.214-0.689,0.478c-0.136,0.264-0.132,0.579,0.01,0.839c2.7,4.923,5.605,8.954,8.884,12.325
				c3.655,3.76,7.681,6.613,12.307,8.726c5.526,2.523,11.514,3.75,18.304,3.75c1.793,0,3.675-0.089,5.592-0.264
				c0.432-0.039,0.772-0.383,0.809-0.814c0.037-0.432-0.241-0.827-0.66-0.938c-4.321-1.153-8.744-2.983-13.917-5.761
				c-4.001-2.148-7.369-4.193-10.265-6.774c3.533,0.729,7.017,1.917,10.577,3.604c3.797,1.799,7.731,4.202,12.026,7.347
				c0.158,0.115,0.343,0.173,0.528,0.173c0.215,0,0.43-0.078,0.6-0.231c0.314-0.284,0.385-0.751,0.17-1.116
				c-2.673-4.537-5.937-8.49-9.699-11.749c-4.663-4.037-9.945-6.848-15.7-8.352C37.52,212.816,33.282,212.273,29.024,212.273
				L29.024,212.273z"/>
		</g>
		<g>
			<path fill-rule="evenodd" clip-rule="evenodd" fill="#010202" d="M82.882,260.402c-1.688,0-3.388-0.109-5.052-0.324
				c-4.988-0.646-9.625-2.17-14.177-4.656c-4.091-2.235-8.025-5.207-12.027-9.085c-0.107-0.104-0.155-0.253-0.129-0.399
				c0.026-0.146,0.123-0.271,0.259-0.33c5.989-2.648,11.956-4.068,18.242-4.344c0.55-0.024,1.107-0.037,1.656-0.037
				c5.536,0,11.006,1.225,16.258,3.64c4.273,1.966,8.299,4.655,11.964,7.995c0.157,0.143,0.191,0.376,0.083,0.559
				c-0.083,0.139-0.23,0.219-0.384,0.219c-0.049,0-0.098-0.008-0.146-0.024c-7.935-2.74-14.549-4.017-20.816-4.017
				c-1.929,0-3.851,0.125-5.729,0.374c3.956,2.049,8.216,3.158,13.293,4.151c5.032,0.985,9.229,1.443,13.208,1.443
				c0.634,0,1.271-0.012,1.892-0.036c0.006,0,0.012,0,0.017,0c0.209,0,0.392,0.146,0.437,0.352c0.046,0.212-0.066,0.426-0.267,0.508
				C94.905,259.09,88.827,260.402,82.882,260.402z"/>
			<path fill="#FFFFFF" d="M71.654,241.674c11.951,0,21.6,5.757,27.921,11.518c-6.864-2.37-13.812-4.041-20.962-4.041
				c-2.348,0-4.717,0.181-7.113,0.575c4.558,2.619,9.541,3.848,14.592,4.836c4.389,0.859,8.81,1.452,13.294,1.452
				c0.635,0,1.271-0.012,1.909-0.037c-5.965,2.456-12.084,3.979-18.412,3.979c-1.651,0-3.314-0.104-4.995-0.321
				c-10.218-1.324-18.518-6.416-25.95-13.619c5.887-2.603,11.858-4.033,18.081-4.307C70.568,241.686,71.114,241.674,71.654,241.674
				 M71.654,240.78c-0.555,0-1.119,0.013-1.675,0.036c-6.343,0.278-12.362,1.712-18.403,4.382c-0.272,0.12-0.466,0.368-0.519,0.66
				c-0.052,0.293,0.044,0.592,0.258,0.799c4.031,3.907,7.997,6.902,12.124,9.156c4.601,2.514,9.29,4.054,14.333,4.707
				c1.683,0.218,3.402,0.329,5.11,0.329c6.003,0,12.137-1.324,18.752-4.047c0.401-0.165,0.625-0.593,0.533-1.017
				c-0.09-0.411-0.455-0.703-0.873-0.703c-0.012,0-0.023,0-0.035,0.001c-0.615,0.023-1.246,0.036-1.874,0.036
				c-3.95,0-8.12-0.456-13.123-1.436c-4.456-0.872-8.275-1.832-11.804-3.443c1.372-0.131,2.761-0.197,4.154-0.197
				c6.216,0,12.785,1.269,20.671,3.992c0.096,0.033,0.194,0.05,0.292,0.05c0.308,0,0.604-0.161,0.768-0.438
				c0.217-0.365,0.147-0.831-0.167-1.117c-3.699-3.371-7.763-6.086-12.078-8.07C82.788,242.019,77.255,240.78,71.654,240.78
				L71.654,240.78z"/>
		</g>
		<g>
			<path fill-rule="evenodd" clip-rule="evenodd" fill="#010202" d="M111.389,274.589c-6.818,0-13.842-1.762-21.474-5.386
				c-0.134-0.064-0.228-0.19-0.25-0.338c-0.022-0.146,0.03-0.295,0.14-0.396c4.824-4.428,10.021-7.687,15.887-9.962
				c4.375-1.698,9.019-2.559,13.801-2.559c7.57,0,14.085,2.157,18.218,3.967c0.194,0.085,0.302,0.295,0.258,0.502
				c-0.044,0.206-0.226,0.354-0.437,0.354c-0.001,0-0.001,0-0.002,0c-0.232-0.001-0.464-0.002-0.695-0.002
				c-10.585,0-18.558,1.567-25.619,5.061c1.635,0.249,3.343,0.37,5.183,0.37c3.11,0,6.164-0.353,8.741-0.698
				c5.855-0.783,10.543-1.898,14.754-3.508c0.052-0.02,0.106-0.029,0.16-0.029c0.153,0,0.3,0.079,0.383,0.217
				c0.112,0.186,0.074,0.425-0.089,0.567c-6.843,5.963-13.779,9.584-21.205,11.069C116.585,274.33,113.978,274.589,111.389,274.589z
				"/>
			<path fill="#FFFFFF" d="M119.493,256.396c6.805,0,13.058,1.748,18.039,3.93c-0.232-0.002-0.465-0.003-0.697-0.003
				c-9.401,0-18.547,1.212-27.008,5.719c2.197,0.436,4.387,0.605,6.571,0.605c2.941,0,5.873-0.31,8.801-0.701
				c5.061-0.678,10.049-1.697,14.854-3.533c-6.132,5.344-12.969,9.362-20.999,10.969c-2.592,0.519-5.145,0.762-7.664,0.762
				c-7.302,0-14.332-2.042-21.282-5.344c4.742-4.353,9.939-7.622,15.746-9.875C110.498,257.121,115.11,256.396,119.493,256.396
				 M119.493,255.502c-4.838,0-9.536,0.871-13.963,2.589c-5.919,2.297-11.162,5.584-16.027,10.05
				c-0.219,0.201-0.323,0.498-0.279,0.792c0.044,0.294,0.232,0.546,0.5,0.674c7.692,3.653,14.779,5.43,21.666,5.43
				c2.618,0,5.255-0.263,7.839-0.779c7.504-1.501,14.508-5.155,21.411-11.172c0.327-0.284,0.402-0.762,0.179-1.133
				c-0.166-0.276-0.46-0.434-0.767-0.434c-0.106,0-0.214,0.019-0.318,0.059c-4.178,1.597-8.834,2.703-14.654,3.482
				c-2.562,0.343-5.598,0.693-8.682,0.693c-1.257,0-2.451-0.057-3.602-0.173c3.195-1.437,6.606-2.493,10.35-3.211
				c4.048-0.775,8.525-1.153,13.688-1.153c0.23,0,0.461,0.001,0.692,0.003c0.002,0,0.004,0,0.005,0c0.422,0,0.786-0.295,0.874-0.708
				c0.088-0.415-0.127-0.834-0.516-1.004C133.718,257.68,127.14,255.502,119.493,255.502L119.493,255.502z"/>
		</g>
		<g>
			<path fill-rule="evenodd" clip-rule="evenodd" fill="#010202" d="M124.241,290.475c-0.081,0-0.162-0.021-0.233-0.065
				c-0.127-0.077-0.207-0.213-0.213-0.361c-0.163-3.691,0.314-7.12,1.459-10.482c2.598-7.629,8.786-11.64,12.243-13.352
				c0.063-0.031,0.131-0.046,0.198-0.046c0.134,0,0.266,0.061,0.353,0.172c0.13,0.167,0.125,0.402-0.012,0.564
				c-3.753,4.414-5.986,8.297-7.106,12.402c1.63-1.546,2.949-3.393,4.356-5.611c1.766-2.783,2.97-5.185,3.792-7.557
				c0.063-0.183,0.234-0.301,0.422-0.301c0.023,0,0.046,0.001,0.07,0.005c0.214,0.034,0.373,0.217,0.376,0.434
				c0.095,5.122-0.858,9.437-2.914,13.19c-2.556,4.669-6.679,8.257-12.605,10.968C124.368,290.462,124.305,290.475,124.241,290.475z
				"/>
			<path fill="#FFFFFF" d="M139.5,266.284c0.084,4.559-0.655,8.942-2.859,12.969c-2.773,5.065-7.124,8.361-12.399,10.775
				c-0.16-3.604,0.31-7.015,1.436-10.319c2.298-6.749,7.528-10.871,12.019-13.095c-3.502,4.119-6.39,8.568-7.531,13.954
				c2.297-1.846,3.954-4.197,5.499-6.634C137.196,271.518,138.556,269.01,139.5,266.284 M139.499,265.391
				c-0.375,0-0.718,0.237-0.844,0.602c-0.038,0.109-0.077,0.219-0.116,0.328c-0.031-0.09-0.078-0.177-0.14-0.256
				c-0.174-0.223-0.437-0.344-0.705-0.344c-0.134,0-0.27,0.03-0.396,0.093c-2.684,1.329-5.061,3.018-7.066,5.019
				c-2.49,2.485-4.307,5.375-5.401,8.589c-1.164,3.416-1.648,6.898-1.482,10.646c0.013,0.297,0.173,0.568,0.427,0.723
				c0.142,0.088,0.304,0.132,0.466,0.132c0.126,0,0.253-0.027,0.372-0.081c2.895-1.324,5.295-2.804,7.341-4.521
				c2.289-1.923,4.078-4.094,5.47-6.638c2.094-3.824,3.065-8.212,2.969-13.414c-0.008-0.433-0.326-0.798-0.753-0.865
				C139.593,265.395,139.545,265.391,139.499,265.391L139.499,265.391z M131.943,277.589c1.184-3.266,3.146-6.466,6.105-10.007
				c-0.767,1.837-1.787,3.741-3.139,5.874C133.921,275.013,132.979,276.382,131.943,277.589L131.943,277.589z"/>
		</g>
		<g>
			<path fill-rule="evenodd" clip-rule="evenodd" fill="#010202" d="M78.88,239.732c-0.067,0-0.134-0.016-0.198-0.047
				c-6.07-3-10.556-6.737-13.712-11.427c-5.018-7.454-7.293-14.472-6.955-21.453c0.007-0.148,0.088-0.283,0.215-0.36
				c0.071-0.043,0.151-0.064,0.231-0.064c0.064,0,0.128,0.014,0.188,0.041c4.702,2.175,9.984,4.771,13.16,8.079
				c3.125,3.254,5.531,7.056,7.152,11.301c1.427,3.735,2.148,7.604,2.084,11.187c-0.004,0.212-0.156,0.392-0.364,0.431
				c-0.028,0.005-0.055,0.008-0.083,0.008c-0.179,0-0.344-0.107-0.413-0.277c-2.535-6.187-6.665-11.949-11.706-16.36
				c0.813,3.067,2.246,5.892,4.109,9.086c2.209,3.787,4.311,6.679,6.615,9.103c0.149,0.157,0.164,0.398,0.036,0.572
				C79.154,239.668,79.019,239.732,78.88,239.732z"/>
			<path fill="#FFFFFF" d="M58.461,206.827c4.345,2.01,9.817,4.642,13.025,7.982c6.552,6.824,9.23,15.522,9.112,22.171
				c-2.719-6.64-7.209-12.776-12.861-17.405c0.776,3.831,2.537,7.218,4.466,10.524c1.914,3.28,4.041,6.412,6.677,9.186
				c-5.424-2.68-10.139-6.223-13.54-11.275C61.062,221.652,58.089,214.516,58.461,206.827 M58.461,205.934
				c-0.161,0-0.321,0.044-0.463,0.129c-0.254,0.154-0.415,0.425-0.429,0.722c-0.181,3.736,0.406,7.581,1.744,11.427
				c1.167,3.355,2.946,6.82,5.287,10.297c3.201,4.756,7.743,8.543,13.885,11.578c0.126,0.062,0.262,0.093,0.396,0.093
				c0.276,0,0.546-0.129,0.72-0.363c0.257-0.349,0.227-0.832-0.072-1.146c-2.279-2.398-4.361-5.264-6.553-9.021
				c-1.529-2.621-2.764-4.987-3.599-7.44c4.449,4.206,8.09,9.481,10.396,15.109c0.139,0.341,0.469,0.555,0.826,0.555
				c0.055,0,0.11-0.005,0.166-0.015c0.417-0.078,0.721-0.438,0.729-0.862c0.064-3.639-0.667-7.565-2.114-11.354
				c-1.643-4.301-4.081-8.154-7.248-11.451c-3.229-3.363-8.556-5.983-13.294-8.175C58.717,205.961,58.589,205.934,58.461,205.934
				L58.461,205.934z"/>
		</g>
		<g>
			<path fill-rule="evenodd" clip-rule="evenodd" fill="#010202" d="M112.65,253.757c-0.023,0-0.047-0.002-0.072-0.006
				c-6.684-1.083-12.07-3.339-16.464-6.894c-6.987-5.65-11.223-11.689-12.952-18.463c-0.037-0.144,0-0.297,0.1-0.407
				c0.085-0.096,0.207-0.149,0.333-0.149c0.02,0,0.041,0.001,0.061,0.004c5.133,0.697,10.945,1.628,14.953,3.855
				c3.825,2.127,7.792,5.698,11.172,10.057c3.031,3.909,5.325,8.076,6.292,11.433c0.059,0.204-0.034,0.421-0.222,0.52
				c-0.066,0.034-0.137,0.051-0.208,0.051c-0.13,0-0.258-0.057-0.346-0.163c-4.346-5.298-11.733-11.88-18.005-14.879
				c1.677,2.68,3.87,4.951,6.58,7.448c3.225,2.971,6.083,5.118,8.998,6.758c0.188,0.106,0.274,0.333,0.202,0.537
				C113.008,253.64,112.837,253.757,112.65,253.757z"/>
			<path fill="#FFFFFF" d="M83.595,228.284c4.744,0.645,10.747,1.553,14.795,3.804c8.269,4.597,15.411,14.834,17.252,21.223
				c-4.55-5.547-12.672-12.803-19.435-15.566c1.868,3.435,4.546,6.154,7.361,8.748c2.792,2.572,5.747,4.942,9.081,6.818
				c-5.972-0.969-11.52-2.97-16.255-6.8C90.436,241.691,85.499,235.743,83.595,228.284 M83.595,227.391
				c-0.253,0-0.496,0.107-0.667,0.3c-0.198,0.222-0.272,0.527-0.199,0.815c0.925,3.624,2.615,7.127,5.024,10.41
				c2.102,2.864,4.82,5.653,8.079,8.289c4.457,3.605,9.911,5.891,16.674,6.987c0.048,0.008,0.096,0.012,0.144,0.012
				c0.374,0,0.716-0.235,0.843-0.599c0.143-0.409-0.028-0.861-0.405-1.074c-2.883-1.622-5.715-3.75-8.914-6.696
				c-2.183-2.011-4.025-3.872-5.526-5.918c5.843,3.231,12.342,9.131,16.303,13.96c0.174,0.213,0.43,0.327,0.691,0.327
				c0.141,0,0.284-0.033,0.416-0.103c0.375-0.197,0.56-0.631,0.443-1.039c-0.982-3.408-3.303-7.631-6.368-11.583
				c-3.416-4.404-7.431-8.017-11.308-10.173c-4.075-2.266-9.937-3.205-15.11-3.907C83.675,227.394,83.635,227.391,83.595,227.391
				L83.595,227.391z"/>
		</g>
		<g>
			<path fill-rule="evenodd" clip-rule="evenodd" fill="#010202" d="M50.52,214.945c-0.105,0-0.21-0.037-0.294-0.11
				c-4.203-3.672-7.317-8.374-9.257-13.976c-2.414-6.969-2.554-14.23-0.405-20.997c0.045-0.142,0.157-0.252,0.3-0.294
				c0.042-0.012,0.083-0.018,0.126-0.018c0.103,0,0.204,0.035,0.285,0.103c2.359,1.956,6.691,5.912,9.191,10.425
				c4.546,8.203,4.964,17.566,3.362,23.206c-0.055,0.193-0.231,0.324-0.429,0.324c-0.011,0-0.022,0-0.033-0.001
				c-0.211-0.016-0.383-0.178-0.41-0.388c-0.794-6.091-3.378-12.781-6.983-18.158c0.014,2.918,0.625,5.772,1.53,9.054
				c0.166,0.6,0.329,1.221,0.488,1.821c0.755,2.859,1.536,5.817,2.921,8.348c0.104,0.19,0.057,0.427-0.112,0.562
				C50.718,214.913,50.619,214.945,50.52,214.945z"/>
			<path fill="#FFFFFF" d="M40.99,179.997c3.433,2.847,6.994,6.522,9.085,10.298c4.272,7.708,5.016,16.909,3.323,22.867
				c-0.864-6.627-3.851-13.954-7.836-19.472c-0.216,3.636,0.562,7.106,1.509,10.544c0.94,3.41,1.736,7.139,3.448,10.265
				c-4.244-3.708-7.272-8.424-9.129-13.785C39.055,193.968,38.819,186.832,40.99,179.997 M40.989,179.104
				c-0.084,0-0.168,0.012-0.251,0.036c-0.285,0.084-0.51,0.304-0.6,0.587c-2.178,6.86-2.037,14.218,0.408,21.279
				c1.965,5.676,5.123,10.441,9.385,14.166c0.168,0.146,0.378,0.221,0.588,0.221c0.198,0,0.396-0.065,0.56-0.197
				c0.338-0.271,0.432-0.746,0.224-1.126c-1.359-2.482-2.133-5.413-2.881-8.247c-0.159-0.602-0.323-1.224-0.489-1.826
				c-0.725-2.628-1.259-4.978-1.444-7.301c3.102,5.059,5.304,11.068,6.023,16.582c0.055,0.421,0.397,0.744,0.82,0.775
				c0.022,0.002,0.044,0.003,0.066,0.003c0.396,0,0.75-0.263,0.859-0.649c0.898-3.161,1.112-7.115,0.603-11.134
				c-0.559-4.4-1.943-8.692-4.003-12.411c-2.536-4.576-6.914-8.575-9.297-10.552C41.397,179.175,41.195,179.104,40.989,179.104
				L40.989,179.104z"/>
		</g>
		<g>
			<path fill-rule="evenodd" clip-rule="evenodd" fill="#010202" d="M31.369,182.724c-0.16,0-0.312-0.085-0.392-0.231
				c-2.598-4.726-4.149-11.431-4.047-17.498c0.123-7.374,2.482-14.243,6.822-19.862c0.085-0.11,0.215-0.174,0.354-0.174
				c0.009,0,0.019,0,0.029,0.001c0.148,0.009,0.282,0.092,0.357,0.221c1.545,2.647,4.257,7.849,5.058,12.944
				c1.47,9.348-1.365,19.399-4.778,24.111c-0.086,0.119-0.222,0.185-0.362,0.185c-0.062,0-0.124-0.013-0.184-0.039
				c-0.193-0.088-0.298-0.299-0.252-0.505c1.336-5.966,1.173-14.228-0.358-20.605c-0.986,2.744-1.39,5.634-1.666,9.023
				c-0.271,3.331-0.68,8.367-0.14,11.916c0.033,0.214-0.093,0.421-0.298,0.49C31.464,182.717,31.416,182.724,31.369,182.724z"/>
			<path fill="#FFFFFF" d="M34.105,145.405c2.248,3.851,4.333,8.526,5.002,12.789c1.369,8.706-1.064,18.764-4.698,23.78
				c1.461-6.522,1.145-15.588-0.706-22.138c-1.45,3.341-1.91,6.867-2.199,10.422c-0.286,3.525-0.672,8.496-0.137,12.02
				c-2.715-4.938-4.087-11.603-3.992-17.275C27.495,157.864,29.722,151.081,34.105,145.405 M34.105,144.511
				c-0.276,0-0.538,0.127-0.708,0.347c-4.399,5.696-6.79,12.657-6.915,20.129c-0.103,6.14,1.469,12.93,4.103,17.721
				c0.161,0.292,0.464,0.463,0.783,0.463c0.095,0,0.192-0.016,0.287-0.048c0.41-0.139,0.662-0.552,0.597-0.979
				c-0.532-3.498-0.109-8.704,0.144-11.813c0.22-2.706,0.522-5.088,1.14-7.325c1.179,6.046,1.214,13.363,0.002,18.773
				c-0.093,0.413,0.118,0.835,0.504,1.01c0.119,0.053,0.243,0.079,0.367,0.079c0.279,0,0.551-0.132,0.724-0.37
				c1.901-2.624,3.455-6.476,4.376-10.846c0.967-4.59,1.138-9.419,0.481-13.597c-0.812-5.168-3.553-10.426-5.114-13.101
				c-0.15-0.256-0.417-0.422-0.714-0.441C34.144,144.512,34.124,144.511,34.105,144.511L34.105,144.511z"/>
		</g>
		<g>
			<path fill-rule="evenodd" clip-rule="evenodd" fill="#010202" d="M26.465,147.146c-0.094,0-0.188-0.03-0.269-0.09
				c-0.169-0.127-0.226-0.356-0.135-0.548c2.104-4.449,3.538-11.46,3.518-16.907c-1.195,1.949-2.002,4.109-2.798,6.661
				c-0.255,0.817-0.595,1.752-0.956,2.742c-0.861,2.365-1.838,5.046-1.979,7.048c-0.015,0.216-0.183,0.39-0.398,0.413
				c-0.016,0.002-0.032,0.002-0.047,0.002c-0.197,0-0.373-0.13-0.429-0.323c-1.449-5.01-0.251-11.59,0.592-15.066
				c1.695-6.989,4.335-11.778,8.309-15.072c0.081-0.067,0.182-0.103,0.285-0.103c0.042,0,0.084,0.006,0.126,0.018
				c0.143,0.042,0.255,0.152,0.3,0.293c0.098,0.308,0.199,0.623,0.302,0.945c1.06,3.303,2.379,7.415,2.164,10.717
				c-0.453,6.932-4.171,15.525-8.289,19.156C26.677,147.107,26.571,147.146,26.465,147.146z"/>
			<path fill="#FFFFFF" d="M32.158,116.35c1.105,3.485,2.677,7.969,2.446,11.499c-0.471,7.208-4.331,15.492-8.139,18.85
				c2.341-4.953,3.824-12.938,3.522-18.509c-1.76,2.411-2.762,5.148-3.632,7.939c-0.863,2.768-2.749,6.977-2.954,9.891
				c-1.283-4.438-0.5-10.316,0.597-14.836C25.377,125.496,27.632,120.101,32.158,116.35 M32.158,115.457
				c-0.206,0-0.408,0.071-0.57,0.206c-4.052,3.358-6.74,8.223-8.458,15.311c-0.854,3.519-2.064,10.186-0.587,15.295
				c0.111,0.385,0.464,0.645,0.857,0.645c0.032,0,0.063-0.001,0.095-0.005c0.431-0.045,0.767-0.394,0.797-0.826
				c0.137-1.939,1.102-4.589,1.953-6.927c0.362-0.995,0.705-1.934,0.962-2.761c0.574-1.841,1.153-3.475,1.881-4.967
				c-0.254,5.052-1.581,10.975-3.431,14.889c-0.181,0.383-0.068,0.841,0.271,1.096c0.16,0.12,0.349,0.18,0.537,0.18
				c0.211,0,0.423-0.075,0.591-0.224c1.989-1.753,3.958-4.697,5.547-8.29c1.636-3.701,2.663-7.668,2.892-11.172
				c0.221-3.387-1.112-7.543-2.184-10.883c-0.103-0.321-0.204-0.637-0.302-0.944c-0.09-0.283-0.314-0.503-0.6-0.587
				C32.327,115.468,32.242,115.457,32.158,115.457L32.158,115.457z"/>
		</g>
		<g>
			<path fill-rule="evenodd" clip-rule="evenodd" fill="#010202" d="M29.65,111.006c-0.14,0-0.276-0.066-0.362-0.186
				c-0.124-0.172-0.11-0.407,0.033-0.563c3.327-3.627,6.773-9.898,8.368-15.107c-1.719,1.507-3.13,3.332-4.646,5.534
				c-0.554,0.804-1.287,1.715-2.062,2.68c-1.517,1.886-3.237,4.024-3.92,5.782c-0.068,0.174-0.235,0.285-0.416,0.285
				c-0.029,0-0.058-0.003-0.087-0.009c-0.212-0.042-0.364-0.23-0.36-0.447c0.071-3.693,1.807-8.336,5.308-14.195
				c3.688-6.173,7.628-9.966,12.4-11.935c0.055-0.022,0.113-0.034,0.17-0.034c0.087,0,0.173,0.025,0.248,0.075
				c0.124,0.082,0.198,0.221,0.199,0.369c0.002,0.323,0.005,0.654,0.009,0.992c0.034,3.469,0.077,7.787-1.107,10.877
				c-2.485,6.486-8.582,13.593-13.59,15.842C29.774,110.993,29.712,111.006,29.65,111.006z"/>
			<path fill="#FFFFFF" d="M44.076,83.258c0.024,3.656,0.197,8.404-1.069,11.707c-2.584,6.746-8.725,13.515-13.356,15.595
				c3.703-4.037,7.484-11.226,8.845-16.636c-2.395,1.782-4.163,4.1-5.82,6.507c-1.644,2.389-4.972,5.831-6.031,8.553
				c0.088-4.619,2.859-9.982,5.244-13.975C34.89,89.985,38.642,85.5,44.076,83.258 M44.076,82.364c-0.115,0-0.231,0.022-0.341,0.067
				c-4.865,2.008-8.873,5.859-12.613,12.119c-3.542,5.927-5.298,10.643-5.371,14.416c-0.008,0.433,0.295,0.81,0.72,0.894
				c0.058,0.011,0.116,0.017,0.173,0.017c0.362,0,0.697-0.221,0.833-0.57c0.659-1.693,2.355-3.802,3.852-5.663
				c0.781-0.972,1.519-1.889,2.082-2.707c1.094-1.588,2.131-2.977,3.268-4.187c-1.739,4.75-4.76,10.014-7.687,13.205
				c-0.287,0.312-0.314,0.783-0.066,1.127c0.172,0.239,0.445,0.371,0.725,0.371c0.123,0,0.248-0.026,0.365-0.079
				c2.419-1.086,5.172-3.314,7.753-6.275c2.659-3.05,4.815-6.535,6.071-9.814c1.215-3.169,1.172-7.535,1.137-11.042
				c-0.003-0.337-0.007-0.668-0.009-0.99c-0.002-0.297-0.151-0.574-0.399-0.738C44.421,82.415,44.249,82.364,44.076,82.364
				L44.076,82.364z"/>
		</g>
		<g>
			<path fill-rule="evenodd" clip-rule="evenodd" fill="#010202" d="M44.185,76.881c-0.185,0-0.354-0.116-0.419-0.294
				c-0.072-0.199,0.005-0.422,0.186-0.533c3.639-2.242,7.994-6.636,10.606-10.622c-1.747,0.856-3.333,2.033-5.087,3.486
				c-0.688,0.57-1.623,1.218-2.613,1.905c-1.857,1.288-3.961,2.748-4.939,4.042c-0.087,0.115-0.221,0.177-0.357,0.177
				c-0.068,0-0.138-0.016-0.203-0.048c-0.193-0.099-0.288-0.321-0.225-0.528c1.174-3.854,5.096-7.905,8.382-11.002
				c4.62-4.355,8.882-6.628,13.413-7.152c0.017-0.002,0.035-0.003,0.052-0.003c0.129,0,0.254,0.057,0.339,0.156
				c0.096,0.113,0.13,0.267,0.091,0.41c-0.076,0.274-0.152,0.556-0.231,0.843c-0.806,2.955-1.81,6.631-3.563,8.975
				c-3.674,4.912-10.567,9.481-15.366,10.185C44.228,76.879,44.206,76.881,44.185,76.881z"/>
			<path fill="#FFFFFF" d="M62.979,56.754c-0.858,3.105-1.854,7.173-3.721,9.669c-3.813,5.098-10.647,9.361-15.074,10.011
				c4.11-2.533,9.044-7.718,11.499-11.978c-2.459,0.935-4.515,2.475-6.499,4.118c-1.968,1.63-6.072,3.968-7.625,6.022
				c1.186-3.895,5.278-7.996,8.261-10.808C53.574,60.25,57.833,57.35,62.979,56.754 M62.98,55.861c-0.034,0-0.068,0.002-0.103,0.006
				c-4.631,0.535-8.975,2.846-13.668,7.271c-3.533,3.331-7.306,7.266-8.503,11.198c-0.126,0.414,0.063,0.859,0.449,1.056
				c0.129,0.066,0.268,0.098,0.405,0.098c0.272,0,0.54-0.125,0.713-0.355c0.936-1.237,3.009-2.675,4.838-3.944
				c0.998-0.692,1.94-1.346,2.644-1.928c1.142-0.946,2.211-1.772,3.298-2.466c-2.594,3.458-6.23,6.964-9.336,8.878
				c-0.361,0.223-0.516,0.668-0.371,1.066c0.13,0.357,0.469,0.588,0.839,0.588c0.043,0,0.086-0.003,0.13-0.009
				c2.327-0.342,5.212-1.575,8.125-3.473c2.998-1.953,5.673-4.399,7.534-6.887c1.804-2.412,2.82-6.134,3.636-9.125
				c0.078-0.287,0.155-0.568,0.23-0.841c0.079-0.287,0.011-0.593-0.183-0.819C63.488,55.974,63.239,55.861,62.98,55.861
				L62.98,55.861z"/>
		</g>
		<g>
			<path fill-rule="evenodd" clip-rule="evenodd" fill="#010202" d="M102.262,31.824c-1.669,0-3.161-0.14-4.313-0.404
				c-0.207-0.047-0.352-0.233-0.347-0.445c0.004-0.212,0.158-0.392,0.366-0.43c4.204-0.771,9.855-3.288,13.735-6.055
				c-1.941,0.165-3.843,0.687-6.004,1.405c-2.359,0.783-11.779,4.439-13.944,5.775c-0.073,0.044-0.154,0.066-0.234,0.066
				c-0.111,0-0.222-0.042-0.307-0.122c-0.147-0.139-0.183-0.359-0.086-0.537c2.363-4.372,10.076-10.067,13.925-11.627
				c3.1-1.256,8.453-2.101,13.321-2.101c2.535,0,4.745,0.228,6.392,0.658c0.144,0.038,0.259,0.144,0.309,0.285
				c0.049,0.14,0.025,0.295-0.063,0.415c-0.477,0.64-1.027,1.449-1.609,2.306c-1.769,2.604-3.971,5.843-6.033,7.13
				C113.013,30.86,106.509,31.824,102.262,31.824z"/>
			<path fill="#FFFFFF" d="M118.372,17.797c2.377,0,4.59,0.202,6.279,0.644c-1.926,2.583-4.875,7.673-7.52,9.323
				c-4.007,2.5-10.173,3.614-14.869,3.614c-1.633,0-3.088-0.135-4.213-0.393c4.749-0.871,11.227-3.916,15.058-6.997
				c-0.037,0-0.075,0-0.111,0c-2.589,0-5.028,0.683-7.438,1.483c-2.425,0.806-11.846,4.468-14.038,5.819
				c2.308-4.271,9.901-9.886,13.7-11.425C108.388,18.58,113.695,17.797,118.372,17.797 M118.372,16.903
				c-4.997,0-10.292,0.837-13.489,2.133c-2.012,0.815-4.937,2.662-7.631,4.819c-1.797,1.438-5.033,4.261-6.519,7.01
				c-0.192,0.356-0.122,0.796,0.172,1.074c0.17,0.161,0.391,0.244,0.614,0.244c0.161,0,0.324-0.044,0.469-0.133
				c2.142-1.321,11.503-4.952,13.851-5.731c1.408-0.468,2.703-0.851,3.968-1.104c-3.671,2.284-8.331,4.233-11.919,4.891
				c-0.417,0.077-0.723,0.436-0.732,0.859s0.281,0.796,0.694,0.891c1.185,0.271,2.711,0.415,4.413,0.415
				c4.305,0,10.907-0.981,15.342-3.749c2.142-1.336,4.373-4.62,6.166-7.258c0.579-0.853,1.126-1.658,1.598-2.29
				c0.177-0.238,0.225-0.549,0.126-0.83c-0.098-0.28-0.329-0.494-0.617-0.569C123.194,17.136,120.944,16.903,118.372,16.903
				L118.372,16.903z"/>
		</g>
		<g>
			<path fill-rule="evenodd" clip-rule="evenodd" fill="#010202" d="M73.618,50.299c-1.051,0-2.002-0.088-2.827-0.261
				c-0.207-0.043-0.355-0.227-0.355-0.438c0.001-0.212,0.15-0.394,0.358-0.437c4.189-0.849,9.793-3.471,13.62-6.31
				c-1.936,0.201-3.83,0.758-5.978,1.516c-0.843,0.297-1.944,0.583-3.11,0.886c-2.188,0.568-4.667,1.212-6.031,2.09
				c-0.074,0.048-0.158,0.071-0.241,0.071c-0.121,0-0.241-0.049-0.328-0.143c-0.147-0.159-0.159-0.4-0.028-0.573
				c2.431-3.213,7.51-5.661,11.663-7.435c4.116-1.758,7.566-2.577,10.86-2.577c1.436,0,2.848,0.166,4.197,0.492
				c0.145,0.035,0.262,0.139,0.314,0.278s0.031,0.295-0.056,0.416c-0.166,0.231-0.335,0.469-0.507,0.711
				c-1.776,2.495-3.987,5.599-6.44,7.194C84.57,48.483,78.498,50.299,73.618,50.299z"/>
			<path fill="#FFFFFF" d="M91.221,37.136c1.358,0,2.724,0.148,4.092,0.479c-1.877,2.618-4.214,6.092-6.828,7.791
				c-4.355,2.831-10.408,4.447-14.867,4.447c-1.006,0-1.93-0.082-2.735-0.251c4.732-0.959,11.152-4.124,14.926-7.275
				c-2.63,0.029-5.092,0.765-7.521,1.623c-2.41,0.851-7.068,1.629-9.234,3.021c2.457-3.246,7.713-5.684,11.482-7.294
				C83.99,38.201,87.58,37.136,91.221,37.136 M91.221,36.242c-3.356,0-6.862,0.83-11.035,2.613
				c-4.465,1.907-9.364,4.298-11.844,7.576c-0.261,0.345-0.237,0.829,0.057,1.146c0.174,0.188,0.414,0.286,0.656,0.286
				c0.167,0,0.334-0.046,0.483-0.142c1.305-0.838,3.747-1.473,5.902-2.033c1.175-0.306,2.286-0.594,3.146-0.897
				c1.398-0.494,2.687-0.901,3.946-1.177c-3.627,2.351-8.25,4.387-11.826,5.112c-0.416,0.084-0.715,0.449-0.716,0.873
				c-0.001,0.424,0.295,0.791,0.71,0.877c0.854,0.179,1.836,0.27,2.918,0.27c4.958,0,11.129-1.845,15.354-4.591
				c2.525-1.642,4.763-4.784,6.561-7.31c0.172-0.242,0.341-0.479,0.506-0.71c0.173-0.242,0.215-0.553,0.111-0.832
				c-0.103-0.278-0.338-0.487-0.627-0.557C94.139,36.412,92.692,36.242,91.221,36.242L91.221,36.242z"/>
		</g>
		<g>
			<path fill-rule="evenodd" clip-rule="evenodd" fill="#010202" d="M70.38,39.189c-0.163,0-0.317-0.09-0.396-0.24
				c-0.098-0.188-0.051-0.419,0.114-0.553c7.141-5.81,11.851-11.523,14.723-17.884c-3.081,1.913-5.623,4.493-7.974,6.996
				c-2.81,2.992-5.278,6.226-7.334,9.612c-0.082,0.134-0.228,0.215-0.382,0.215c-0.019,0-0.038-0.001-0.058-0.004
				c-0.175-0.022-0.32-0.146-0.371-0.316c-0.56-1.881,1.5-6.915,2.412-8.992c1.826-4.161,3.995-7.914,5.659-9.796
				c5.262-5.95,12.122-9.932,20.971-12.173c0.036-0.009,0.073-0.014,0.11-0.014c0.108,0,0.214,0.04,0.297,0.113
				c0.11,0.099,0.165,0.246,0.146,0.393c-1.209,8.992-4.261,16.088-9.329,21.696c-4.617,5.108-10.657,8.683-18.464,10.929
				C70.463,39.184,70.421,39.189,70.38,39.189z"/>
			<path fill="#FFFFFF" d="M97.854,6.488c-1.085,8.067-3.737,15.392-9.217,21.456c-4.95,5.477-11.225,8.777-18.256,10.799
				c6.541-5.322,12.139-11.362,15.385-19.295c-3.625,1.958-6.48,4.812-9.244,7.755c-2.777,2.957-5.251,6.163-7.391,9.686
				c-0.776-2.609,4.497-14.43,7.977-18.364C82.693,12.209,89.767,8.536,97.854,6.488 M97.854,5.595
				c-0.073,0-0.147,0.009-0.219,0.027c-8.939,2.264-15.873,6.291-21.196,12.31c-1.327,1.5-3.529,4.892-5.733,9.913
				c-0.872,1.986-1.564,3.847-2.004,5.381c-0.525,1.836-0.665,3.117-0.427,3.917c0.101,0.339,0.392,0.586,0.742,0.631
				c0.039,0.005,0.077,0.008,0.115,0.008c0.309,0,0.6-0.161,0.764-0.43c2.041-3.36,4.489-6.569,7.278-9.538
				c1.979-2.107,4.093-4.269,6.546-6.027c-1.348,2.676-3.031,5.221-5.099,7.718c-2.362,2.852-5.241,5.646-8.804,8.544
				c-0.329,0.268-0.425,0.73-0.228,1.107c0.157,0.301,0.466,0.479,0.792,0.479c0.082,0,0.165-0.011,0.247-0.035
				c7.89-2.27,13.998-5.887,18.672-11.059c5.13-5.676,8.218-12.852,9.44-21.936c0.04-0.294-0.069-0.588-0.291-0.786
				C98.283,5.673,98.071,5.595,97.854,5.595L97.854,5.595z"/>
		</g>
		<g>
			<path fill-rule="evenodd" clip-rule="evenodd" fill="#010202" d="M100.544,18.189c-0.146,0-0.286-0.072-0.37-0.197l-0.123-0.18
				c-0.136-0.201-0.086-0.474,0.111-0.615c0.065-0.046,0.129-0.094,0.194-0.143c0.151-0.113,0.308-0.229,0.482-0.333
				c2.838-1.684,5.57-3.386,7.808-5.675c0.351-0.358,0.694-0.745,1.024-1.152c-3.443,1.333-6.693,3.469-9.908,6.509
				c-0.086,0.081-0.196,0.122-0.307,0.122c-0.092,0-0.184-0.028-0.263-0.085c-0.174-0.126-0.233-0.359-0.141-0.553
				c2.297-4.833,5.556-8.601,9.687-11.196c3.647-2.292,7.819-3.679,12.753-4.241c0.017-0.002,0.034-0.003,0.05-0.003
				c0.138,0,0.27,0.064,0.355,0.176c0.095,0.125,0.118,0.29,0.06,0.436c-1.317,3.315-3.206,6.283-5.773,9.074
				c-3.898,4.239-8.989,6.872-15.562,8.049C100.597,18.187,100.571,18.189,100.544,18.189z"/>
			<path fill="#FFFFFF" d="M121.543,0.893c-1.382,3.477-3.311,6.354-5.687,8.937c-4.144,4.505-9.403,6.854-15.312,7.912
				c-0.041-0.061-0.082-0.121-0.123-0.181c0.214-0.153,0.419-0.322,0.645-0.456c2.813-1.669,5.592-3.386,7.899-5.747
				c0.449-0.459,0.872-0.947,1.267-1.454c0.14-0.179,0.16-0.451,0.146-0.746c-4.209,1.455-7.734,3.904-10.923,6.919
				c2.166-4.557,5.244-8.321,9.521-11.01C112.743,2.702,116.891,1.423,121.543,0.893 M121.543,0c-0.033,0-0.067,0.001-0.101,0.005
				c-5.002,0.57-9.235,1.978-12.94,4.307c-4.204,2.642-7.519,6.472-9.853,11.383c-0.185,0.388-0.066,0.853,0.282,1.106
				c0.158,0.115,0.342,0.171,0.525,0.171c0.13,0,0.26-0.028,0.38-0.085c-0.338,0.293-0.41,0.798-0.154,1.176l0.044,0.065
				l0.078,0.115c0.168,0.249,0.447,0.394,0.74,0.394c0.052,0,0.105-0.005,0.158-0.014c6.673-1.195,11.845-3.873,15.812-8.187
				c2.604-2.833,4.521-5.845,5.86-9.212c0.116-0.292,0.07-0.623-0.121-0.873C122.083,0.128,121.819,0,121.543,0L121.543,0z
				 M100.149,16.652c2.539-2.388,5.099-4.205,7.757-5.5c-2.12,2.044-4.661,3.622-7.295,5.185
				C100.441,16.438,100.288,16.55,100.149,16.652L100.149,16.652z"/>
		</g>
	</g>
	<g>
		<g>
			<path fill-rule="evenodd" clip-rule="evenodd" fill="#010202" d="M260.322,175.422c-0.137,0-0.271-0.062-0.357-0.179
				l-0.137-0.182c-0.128-0.168-0.12-0.402,0.019-0.562c3.676-4.233,6.261-9.139,8.103-12.938c1.951-4.026,3.846-8.385,4.662-13.125
				c-5.679,5.781-9.821,13.34-12.983,23.652c-0.058,0.187-0.229,0.314-0.424,0.315c-0.001,0-0.002,0-0.004,0
				c-0.193,0-0.365-0.125-0.425-0.309c-1.004-3.103,0.078-13.552,1.996-19.276c3.105-9.269,9.437-16.699,19.925-23.386
				c0.226-0.144,0.474-0.225,0.736-0.31c0.13-0.042,0.264-0.086,0.411-0.142c0.051-0.02,0.104-0.029,0.157-0.029
				c0.082,0,0.163,0.022,0.233,0.066c0.118,0.072,0.196,0.195,0.211,0.332c0.059,0.532,0.124,1.055,0.187,1.56
				c0.139,1.109,0.27,2.157,0.323,3.226c0.196,3.875-0.069,7.893-0.791,11.94c-1.285,7.214-4.439,13.696-9.376,19.268
				c-2.875,3.245-6.213,6.117-10.203,8.781c-0.457,0.305-0.934,0.584-1.395,0.854c-0.213,0.125-0.427,0.25-0.638,0.378
				C260.48,175.401,260.4,175.422,260.322,175.422z"/>
			<path fill="#FFFFFF" d="M282.001,129.399c0.185,1.68,0.43,3.216,0.508,4.76c0.202,3.973-0.085,7.912-0.784,11.839
				c-1.29,7.242-4.413,13.567-9.271,19.05c-2.975,3.357-6.39,6.218-10.117,8.705c-0.652,0.436-1.343,0.816-2.016,1.222
				c-0.045-0.061-0.091-0.121-0.138-0.183c3.405-3.922,5.921-8.4,8.168-13.037c2.248-4.64,4.24-9.376,4.899-14.578
				c-7.117,6.803-11.161,15.354-14.051,24.78c-0.944-2.918,0.054-13.204,1.995-18.997c3.464-10.337,10.798-17.449,19.74-23.15
				C281.207,129.636,281.547,129.57,282.001,129.399 M282.001,128.505c-0.106,0-0.213,0.019-0.315,0.058
				c-0.137,0.052-0.267,0.094-0.392,0.135c-0.29,0.094-0.564,0.184-0.838,0.358c-4.964,3.164-8.925,6.434-12.111,9.995
				c-3.691,4.126-6.307,8.583-7.997,13.625c-0.919,2.744-1.712,6.771-2.121,10.77c-0.196,1.921-0.577,6.622,0.124,8.787
				c0.119,0.368,0.463,0.618,0.85,0.618c0.003,0,0.005,0,0.007,0c0.391-0.003,0.733-0.259,0.848-0.632
				c1.571-5.126,3.328-9.446,5.371-13.209c1.875-3.455,3.998-6.47,6.448-9.148c-0.916,4.112-2.6,7.938-4.327,11.504
				c-3.482,7.188-6.125,10.638-8.037,12.842c-0.277,0.318-0.293,0.787-0.038,1.124l0.136,0.181c0.175,0.232,0.442,0.356,0.715,0.356
				c0.158,0,0.317-0.041,0.461-0.128c0.21-0.127,0.422-0.251,0.634-0.376c0.466-0.273,0.948-0.556,1.416-0.868
				c4.022-2.685,7.389-5.582,10.289-8.855c2.483-2.804,4.539-5.854,6.107-9.066c1.586-3.246,2.722-6.752,3.375-10.42
				c0.727-4.081,0.995-8.132,0.797-12.041c-0.055-1.085-0.187-2.141-0.326-3.258c-0.062-0.504-0.128-1.025-0.186-1.554
				c-0.03-0.274-0.186-0.52-0.421-0.664C282.326,128.55,282.164,128.505,282.001,128.505L282.001,128.505z"/>
		</g>
		<g>
			<path fill-rule="evenodd" clip-rule="evenodd" fill="#010202" d="M258.977,98.664c-0.035,0-0.072-0.004-0.107-0.013
				c-0.21-0.053-0.352-0.247-0.338-0.463c0.369-5.648-0.437-11.109-1.181-15.236c-1.274-7.077-2.631-10.746-3.938-13.354
				c-1.494,9.797,0.741,18.907,3.161,26.58c0.063,0.203-0.024,0.422-0.21,0.525c-0.068,0.038-0.143,0.056-0.216,0.056
				c-0.128,0-0.254-0.055-0.341-0.158c-6.794-8.003-10.387-16.137-10.981-24.868c-0.527-7.742,1.007-15.504,4.56-23.073
				c0.062-0.133,0.186-0.227,0.331-0.251c0.024-0.004,0.049-0.006,0.073-0.006c0.12,0,0.236,0.048,0.321,0.136
				c7.919,8.191,12.279,16.742,13.33,26.14c0.877,7.839-0.487,15.82-4.057,23.723C259.311,98.564,259.149,98.664,258.977,98.664z"/>
			<path fill="#FFFFFF" d="M249.789,48.849c7.07,7.314,12.065,15.67,13.208,25.879c0.913,8.169-0.641,16.005-4.021,23.489
				c0.34-5.184-0.273-10.28-1.187-15.345c-0.912-5.066-2.067-10.068-4.599-14.649c-1.791,9.658,0.064,18.92,2.956,28.089
				c-6.065-7.145-10.23-15.128-10.877-24.609C244.727,63.719,246.374,56.124,249.789,48.849 M249.789,47.956
				c-0.049,0-0.098,0.004-0.146,0.012c-0.29,0.048-0.537,0.236-0.662,0.501c-1.762,3.753-3.044,7.576-3.811,11.363
				c-0.797,3.931-1.062,7.945-0.791,11.931c0.603,8.83,4.229,17.048,11.087,25.126c0.175,0.206,0.426,0.315,0.682,0.315
				c0.147,0,0.296-0.037,0.432-0.111c0.372-0.206,0.548-0.646,0.42-1.051c-1.654-5.246-2.671-9.601-3.2-13.707
				c-0.506-3.926-0.556-7.604-0.147-11.161c1.552,3.55,2.454,7.384,3.26,11.855c0.739,4.102,1.541,9.528,1.174,15.128
				c-0.028,0.431,0.257,0.82,0.676,0.925c0.072,0.018,0.145,0.027,0.217,0.027c0.344,0,0.667-0.2,0.813-0.526
				c1.756-3.889,2.996-7.824,3.686-11.698c0.725-4.074,0.862-8.198,0.408-12.257c-1.062-9.5-5.463-18.136-13.453-26.401
				C250.262,48.052,250.029,47.956,249.789,47.956L249.789,47.956z"/>
		</g>
		<g>
			<path fill-rule="evenodd" clip-rule="evenodd" fill="#010202" d="M265.779,136.854c-0.057,0-0.114-0.011-0.169-0.033
				c-0.145-0.059-0.248-0.19-0.272-0.345c-0.061-0.398,0.032-0.679,0.101-0.885l0.014-0.039c0.188-0.57,0.388-1.145,0.583-1.7
				c0.43-1.229,0.874-2.499,1.189-3.769c1.058-4.256,1.763-8.44,2.096-12.438c0.267-3.206,0.461-6.645,0.074-10.071
				c-0.019-0.164-0.049-0.328-0.085-0.496c-3.587,7.273-5.209,15.527-5.245,26.63c-0.001,0.212-0.15,0.395-0.359,0.437
				c-0.029,0.006-0.059,0.009-0.088,0.009c-0.177,0-0.34-0.105-0.411-0.273c-3.291-7.799-4.464-15.154-3.587-22.485
				c1.057-8.831,5.051-17.092,12.212-25.255c0.085-0.097,0.208-0.152,0.336-0.152c0.015,0,0.029,0,0.045,0.002
				c0.144,0.014,0.271,0.097,0.343,0.223s0.138,0.232,0.196,0.329c0.121,0.198,0.227,0.368,0.302,0.564
				c0.319,0.826,0.66,1.663,0.989,2.472c0.784,1.926,1.595,3.917,2.188,5.948c1.12,3.837,1.71,7.944,1.752,12.207
				c0.062,6.048-1.42,12.051-4.527,18.349c-1.58,3.203-3.72,6.429-6.735,10.153c-0.147,0.183-0.334,0.304-0.498,0.411
				c-0.06,0.039-0.119,0.077-0.175,0.119C265.969,136.824,265.875,136.854,265.779,136.854z"/>
			<path fill="#FFFFFF" d="M272.167,86.436c0.213,0.373,0.376,0.589,0.47,0.833c1.076,2.788,2.33,5.524,3.165,8.384
				c1.146,3.923,1.693,7.961,1.734,12.086c0.064,6.459-1.664,12.436-4.481,18.147c-1.793,3.634-4.136,6.925-6.682,10.07
				c-0.152,0.188-0.394,0.304-0.594,0.453c-0.048-0.312,0.029-0.512,0.097-0.715c0.603-1.831,1.318-3.635,1.782-5.5
				c1.021-4.111,1.755-8.277,2.107-12.508c0.281-3.388,0.455-6.77,0.073-10.158c-0.049-0.437-0.174-0.865-0.263-1.298
				c-0.112,0-0.225-0.001-0.337-0.002c-4.423,8.614-5.59,17.914-5.622,27.482c-3.011-7.136-4.479-14.527-3.555-22.258
				C261.219,101.789,265.765,93.734,272.167,86.436 M272.167,85.542c-0.256,0-0.501,0.11-0.672,0.304
				c-3.476,3.962-6.14,7.824-8.146,11.808c-2.238,4.446-3.604,8.923-4.174,13.689c-0.887,7.411,0.297,14.84,3.619,22.712
				c0.142,0.335,0.469,0.546,0.822,0.546c0.059,0,0.117-0.005,0.176-0.018c0.417-0.083,0.717-0.448,0.718-0.873
				c0.018-5.285,0.394-9.844,1.149-13.94c0.745-4.035,1.859-7.686,3.392-11.094c0.24,3.04,0.061,6.079-0.177,8.933
				c-0.336,4.029-1.018,8.074-2.084,12.367c-0.311,1.249-0.751,2.51-1.178,3.729c-0.195,0.557-0.396,1.134-0.586,1.708l-0.012,0.037
				c-0.079,0.235-0.197,0.589-0.119,1.094c0.048,0.31,0.255,0.572,0.545,0.691c0.109,0.044,0.225,0.066,0.338,0.066
				c0.19,0,0.378-0.061,0.535-0.178c0.041-0.03,0.095-0.065,0.151-0.103c0.183-0.119,0.409-0.267,0.602-0.504
				c3.036-3.75,5.193-7.003,6.788-10.236c3.14-6.363,4.636-12.431,4.574-18.552c-0.043-4.303-0.639-8.451-1.771-12.327
				c-0.6-2.053-1.415-4.055-2.203-5.991c-0.329-0.807-0.669-1.642-0.986-2.464c-0.091-0.235-0.211-0.43-0.338-0.638
				c-0.06-0.098-0.122-0.199-0.189-0.316c-0.144-0.251-0.398-0.417-0.687-0.446C272.227,85.543,272.196,85.542,272.167,85.542
				L272.167,85.542z"/>
		</g>
		<g>
			<path fill-rule="evenodd" clip-rule="evenodd" fill="#010202" d="M240.835,64.385c-0.203,0-0.38-0.136-0.432-0.332
				c-1.408-5.279-3.744-10.044-5.843-14.009c-1.963-3.709-4.441-7.981-8.03-11.84c1.474,9.504,6.307,17.453,11.319,24.629
				c0.115,0.164,0.106,0.384-0.021,0.539c-0.087,0.106-0.215,0.164-0.346,0.164c-0.061,0-0.121-0.012-0.18-0.038
				c-0.053-0.023-0.108-0.044-0.164-0.064c-0.157-0.058-0.336-0.124-0.5-0.247l-0.995-0.74c-1.568-1.166-3.189-2.37-4.765-3.584
				c-1.954-1.506-3.784-3.335-5.935-5.933c-4.131-4.989-6.886-10.988-8.188-17.831c-0.838-4.401-1.052-9.14-0.652-14.486
				c0.031-0.418,0.089-1.197,0.783-1.197c0.249,0,0.509,0.122,0.821,0.304c0.38,0.221,0.763,0.438,1.146,0.655
				c1.292,0.732,2.628,1.489,3.821,2.417c2.354,1.829,4.726,3.849,7.25,6.175c1.926,1.774,3.669,3.956,5.485,6.866
				c2.739,4.388,4.584,9.405,5.484,14.911c0.682,4.169,0.854,8.446,0.51,12.711c-0.014,0.167-0.058,0.315-0.098,0.446
				c-0.014,0.048-0.028,0.096-0.041,0.145c-0.05,0.197-0.227,0.336-0.43,0.338C240.837,64.385,240.836,64.385,240.835,64.385z"/>
			<path fill="#FFFFFF" d="M216.888,19.865c0.134,0,0.324,0.084,0.597,0.243c1.665,0.972,3.404,1.862,4.918,3.039
				c2.495,1.938,4.897,4.009,7.222,6.151c2.138,1.969,3.869,4.308,5.409,6.774c2.832,4.537,4.562,9.484,5.423,14.747
				c0.683,4.179,0.845,8.382,0.505,12.604c-0.014,0.175-0.083,0.345-0.126,0.517c-1.333-4.995-3.494-9.596-5.88-14.103
				c-2.39-4.516-5.053-8.843-8.77-12.639c-0.079,0.332-0.179,0.517-0.154,0.683c1.376,9.493,6.049,17.474,11.452,25.209
				c-0.193-0.085-0.412-0.137-0.577-0.26c-1.924-1.432-3.854-2.855-5.754-4.319c-2.205-1.7-4.095-3.729-5.862-5.863
				c-4.265-5.151-6.849-11.085-8.095-17.629c-0.906-4.76-1.005-9.554-0.646-14.37C216.59,20.109,216.658,19.865,216.888,19.865
				 M216.888,18.971c-0.483,0-0.884,0.282-1.07,0.755c-0.083,0.208-0.129,0.457-0.158,0.855c-0.402,5.386-0.187,10.163,0.659,14.603
				c0.646,3.393,1.647,6.603,2.979,9.539c1.386,3.058,3.17,5.915,5.305,8.493c2.173,2.624,4.024,4.475,6.006,6.001
				c1.578,1.216,3.201,2.423,4.771,3.589c0.332,0.246,0.663,0.493,0.995,0.739c0.216,0.161,0.444,0.246,0.611,0.307
				c0.053,0.02,0.104,0.038,0.14,0.054c0.116,0.051,0.238,0.076,0.359,0.076c0.262,0,0.517-0.115,0.69-0.327
				c0.254-0.31,0.271-0.75,0.042-1.079c-4.707-6.738-9.252-14.156-10.973-22.903c3.003,3.503,5.169,7.267,6.923,10.579
				c2.087,3.942,4.408,8.679,5.806,13.915c0.104,0.391,0.458,0.663,0.863,0.663c0.002,0,0.004,0,0.006,0
				c0.407-0.003,0.761-0.281,0.86-0.676c0.011-0.042,0.023-0.083,0.035-0.125c0.044-0.145,0.098-0.325,0.115-0.538
				c0.347-4.301,0.174-8.614-0.514-12.819c-0.91-5.564-2.776-10.637-5.547-15.075c-1.838-2.945-3.605-5.156-5.562-6.958
				c-2.534-2.334-4.915-4.362-7.278-6.199c-1.219-0.947-2.569-1.712-3.876-2.452c-0.376-0.213-0.765-0.433-1.141-0.652
				S217.237,18.971,216.888,18.971L216.888,18.971z"/>
		</g>
		<g>
			<path fill-rule="evenodd" clip-rule="evenodd" fill="#010202" d="M243.312,210.151c-0.179,0-0.341-0.106-0.411-0.272
				c-0.075-0.176-0.029-0.381,0.113-0.508c0.426-0.38,0.859-0.663,1.277-0.937c0.17-0.111,0.338-0.222,0.502-0.336
				c2.656-1.854,5.253-4.044,7.938-6.695c3.59-3.543,7.666-7.884,10.684-13.207c0.024-0.044,0.049-0.09,0.071-0.137
				c-7.273,3.808-13.433,9.584-19.879,18.619c-0.086,0.122-0.224,0.188-0.363,0.188c-0.086,0-0.172-0.024-0.248-0.075l-0.171-0.114
				c-0.157-0.105-0.23-0.299-0.184-0.482c0.078-0.306,0.151-0.612,0.226-0.919c0.159-0.666,0.324-1.354,0.538-2.023
				c1.845-5.769,4.282-10.604,7.451-14.78c2.893-3.814,6.483-6.981,10.978-9.684c2.992-1.799,6.239-3.283,9.927-4.539
				c1.434-0.488,2.922-0.868,4.36-1.235c0.246-0.063,0.493-0.126,0.739-0.189c0.235-0.061,0.421-0.09,0.582-0.09
				c0.288,0,0.513,0.095,0.666,0.281c0.253,0.309,0.21,0.745,0.126,1.171l-0.08,0.411c-0.204,1.045-0.416,2.126-0.717,3.173
				c-1.33,4.612-2.669,8.043-4.341,11.124c-1.544,2.846-3.213,5.296-5.104,7.491c-2.572,2.987-5.685,5.588-9.249,7.729
				c-4.613,2.771-9.507,4.776-14.545,5.96c-0.215,0.05-0.431,0.058-0.62,0.063c-0.078,0.003-0.156,0.006-0.233,0.012
				C243.334,210.15,243.322,210.151,243.312,210.151z"/>
			<path fill="#FFFFFF" d="M277.442,173.182c0.402,0,0.481,0.271,0.354,0.918c-0.234,1.188-0.454,2.385-0.789,3.547
				c-1.098,3.807-2.404,7.534-4.304,11.035c-1.435,2.644-3.09,5.137-5.05,7.413c-2.621,3.044-5.695,5.568-9.141,7.638
				c-4.503,2.705-9.297,4.705-14.416,5.907c-0.254,0.06-0.523,0.045-0.786,0.064c0.571-0.509,1.174-0.846,1.737-1.239
				c2.87-2.004,5.508-4.287,7.996-6.743c4.084-4.032,7.908-8.276,10.759-13.305c0.168-0.297,0.273-0.63,0.408-0.946
				c-0.077-0.056-0.153-0.111-0.23-0.167c-8.717,4.372-15.146,11.279-20.737,19.116c-0.057-0.038-0.113-0.076-0.17-0.114
				c0.249-0.974,0.451-1.962,0.756-2.918c1.687-5.271,4.02-10.214,7.382-14.646c2.977-3.924,6.652-7.045,10.852-9.57
				c3.109-1.868,6.414-3.332,9.841-4.499c1.658-0.564,3.369-0.978,5.067-1.415C277.162,173.208,277.317,173.182,277.442,173.182
				 M277.442,172.288c-0.2,0-0.42,0.033-0.693,0.104c-0.246,0.063-0.492,0.126-0.738,0.188c-1.447,0.37-2.944,0.752-4.394,1.246
				c-3.718,1.266-6.993,2.764-10.014,4.579c-4.544,2.731-8.176,5.936-11.104,9.796c-3.199,4.219-5.659,9.098-7.521,14.914
				c-0.219,0.686-0.386,1.382-0.547,2.056c-0.072,0.301-0.146,0.612-0.224,0.913c-0.095,0.367,0.053,0.754,0.368,0.964l0.087,0.059
				l0.083,0.056c0.152,0.102,0.325,0.151,0.496,0.151c0.279,0,0.555-0.131,0.729-0.375c3.072-4.307,6.044-7.816,9.087-10.73
				c2.95-2.827,5.986-5.126,9.229-6.982c-2.897,4.712-6.588,8.62-9.87,11.86c-2.667,2.633-5.245,4.807-7.88,6.646
				c-0.157,0.109-0.319,0.216-0.491,0.328c-0.432,0.283-0.878,0.575-1.329,0.977c-0.286,0.256-0.378,0.664-0.228,1.017
				c0.141,0.332,0.466,0.544,0.822,0.544c0.022,0,0.045-0.001,0.067-0.002c0.064-0.005,0.138-0.008,0.215-0.01
				c0.211-0.008,0.449-0.016,0.708-0.076c5.083-1.194,10.02-3.217,14.673-6.012c3.605-2.166,6.754-4.797,9.357-7.82
				c1.911-2.221,3.598-4.696,5.157-7.57c1.688-3.11,3.038-6.568,4.377-11.214c0.307-1.064,0.521-2.155,0.727-3.21l0.08-0.411
				c0.101-0.508,0.152-1.088-0.22-1.54C278.286,172.529,277.976,172.288,277.442,172.288L277.442,172.288z"/>
		</g>
		<g>
			<path fill-rule="evenodd" clip-rule="evenodd" fill="#010202" d="M221.904,238.318c-1.779,0-3.647-0.089-5.552-0.263
				c-0.216-0.02-0.386-0.19-0.404-0.407c-0.019-0.215,0.121-0.413,0.33-0.469c4.355-1.162,8.808-3.005,14.013-5.799
				c4.559-2.447,8.304-4.765,11.479-7.89c-7.922,1.331-15.476,4.857-24.292,11.312c-0.079,0.058-0.172,0.086-0.264,0.086
				c-0.108,0-0.216-0.039-0.301-0.115c-0.156-0.143-0.192-0.375-0.085-0.558c2.648-4.496,5.881-8.412,9.606-11.639
				c4.611-3.992,9.833-6.771,15.521-8.257c4.064-1.062,8.265-1.602,12.483-1.602c2.036,0,4.132,0.125,6.228,0.371
				c0.147,0.018,0.277,0.106,0.346,0.239c0.067,0.132,0.065,0.289-0.006,0.419c-2.68,4.887-5.562,8.887-8.812,12.229
				c-3.616,3.719-7.598,6.542-12.173,8.631C234.557,237.104,228.63,238.318,221.904,238.318z"/>
			<path fill="#FFFFFF" d="M254.44,213.167c2.034,0,4.091,0.123,6.176,0.367c-4.977,9.075-11.405,16.389-20.778,20.668
				c-5.749,2.625-11.764,3.669-17.934,3.669c-1.824,0-3.662-0.091-5.511-0.26c4.971-1.326,9.61-3.422,14.108-5.837
				c4.535-2.435,8.934-5.078,12.516-8.925c-9.731,1.334-18.021,5.896-25.804,11.594c4.537-7.703,12.55-16.474,24.855-19.69
				C246.131,213.691,250.237,213.167,254.44,213.167 M254.44,212.273c-4.257,0-8.495,0.543-12.597,1.615
				c-5.755,1.504-11.037,4.314-15.7,8.352c-3.763,3.259-7.026,7.212-9.699,11.749c-0.215,0.365-0.144,0.832,0.17,1.116
				c0.17,0.153,0.385,0.231,0.601,0.231c0.185,0,0.369-0.058,0.527-0.173c4.295-3.145,8.229-5.548,12.025-7.347
				c3.561-1.688,7.045-2.876,10.578-3.604c-2.897,2.581-6.264,4.626-10.266,6.774c-5.174,2.777-9.596,4.607-13.917,5.761
				c-0.419,0.111-0.696,0.507-0.66,0.938c0.037,0.432,0.378,0.775,0.81,0.814c1.917,0.175,3.799,0.264,5.592,0.264
				c6.791,0,12.778-1.227,18.305-3.75c4.627-2.112,8.652-4.966,12.307-8.726c3.279-3.371,6.185-7.402,8.884-12.325
				c0.144-0.26,0.147-0.575,0.011-0.839c-0.136-0.264-0.395-0.443-0.689-0.478C258.607,212.399,256.494,212.273,254.44,212.273
				L254.44,212.273z"/>
		</g>
		<g>
			<path fill-rule="evenodd" clip-rule="evenodd" fill="#010202" d="M200.583,260.402c-5.944,0-12.022-1.312-18.583-4.013
				c-0.2-0.082-0.312-0.296-0.267-0.508c0.045-0.206,0.228-0.352,0.437-0.352c0.006,0,0.012,0,0.018,0
				c0.621,0.024,1.258,0.036,1.892,0.036c3.979,0,8.177-0.459,13.208-1.443c5.077-0.993,9.338-2.103,13.294-4.151
				c-1.879-0.249-3.801-0.374-5.729-0.374c-6.268,0-12.882,1.276-20.816,4.017c-0.048,0.017-0.098,0.024-0.146,0.024
				c-0.154,0-0.303-0.08-0.385-0.219c-0.108-0.183-0.073-0.416,0.083-0.559c3.666-3.34,7.69-6.029,11.964-7.995
				c5.253-2.415,10.723-3.64,16.259-3.64c0.549,0,1.105,0.013,1.655,0.037c6.286,0.275,12.254,1.695,18.242,4.344
				c0.136,0.06,0.233,0.184,0.259,0.33c0.026,0.146-0.021,0.296-0.129,0.399c-4.002,3.878-7.936,6.85-12.026,9.085
				c-4.552,2.486-9.189,4.01-14.177,4.656C203.971,260.293,202.271,260.402,200.583,260.402z"/>
			<path fill="#FFFFFF" d="M211.811,241.674c0.54,0,1.086,0.012,1.636,0.035c6.223,0.273,12.194,1.704,18.081,4.307
				c-7.432,7.203-15.731,12.295-25.95,13.619c-1.68,0.218-3.344,0.321-4.994,0.321c-6.328,0-12.447-1.523-18.413-3.979
				c0.639,0.025,1.273,0.037,1.909,0.037c4.483,0,8.905-0.593,13.294-1.452c5.051-0.988,10.034-2.217,14.592-4.836
				c-2.396-0.395-4.766-0.575-7.113-0.575c-7.15,0-14.099,1.671-20.963,4.041C190.211,247.431,199.859,241.674,211.811,241.674
				 M211.811,240.78L211.811,240.78c-5.602,0-11.134,1.238-16.445,3.681c-4.314,1.983-8.379,4.699-12.078,8.07
				c-0.313,0.286-0.383,0.752-0.166,1.117c0.164,0.276,0.46,0.438,0.769,0.438c0.097,0,0.195-0.017,0.291-0.05
				c7.886-2.724,14.454-3.992,20.671-3.992c1.394,0,2.782,0.066,4.153,0.197c-3.528,1.611-7.348,2.571-11.804,3.443
				c-5.003,0.979-9.172,1.436-13.122,1.436c-0.629,0-1.259-0.013-1.874-0.036c-0.012-0.001-0.023-0.001-0.035-0.001
				c-0.418,0-0.783,0.292-0.873,0.703c-0.092,0.424,0.133,0.852,0.533,1.017c6.615,2.723,12.749,4.047,18.753,4.047
				c1.707,0,3.426-0.111,5.109-0.329c5.044-0.653,9.731-2.193,14.333-4.707c4.127-2.254,8.093-5.249,12.124-9.156
				c0.213-0.207,0.31-0.506,0.258-0.799c-0.053-0.292-0.247-0.54-0.519-0.66c-6.041-2.67-12.061-4.104-18.403-4.382
				C212.93,240.793,212.366,240.78,211.811,240.78L211.811,240.78z"/>
		</g>
		<g>
			<path fill-rule="evenodd" clip-rule="evenodd" fill="#010202" d="M172.076,274.589c-2.589,0-5.197-0.259-7.752-0.771
				c-7.426-1.485-14.362-5.106-21.205-11.069c-0.163-0.143-0.201-0.382-0.09-0.567c0.083-0.138,0.23-0.217,0.384-0.217
				c0.053,0,0.106,0.01,0.159,0.029c4.21,1.609,8.898,2.725,14.754,3.508c2.577,0.346,5.631,0.698,8.741,0.698
				c1.84,0,3.547-0.121,5.183-0.37c-7.062-3.493-15.034-5.061-25.619-5.061c-0.231,0-0.463,0.001-0.694,0.002
				c-0.001,0-0.002,0-0.003,0c-0.211,0-0.394-0.147-0.438-0.354c-0.044-0.207,0.064-0.417,0.258-0.502
				c4.133-1.81,10.648-3.967,18.218-3.967c4.783,0,9.427,0.86,13.802,2.559c5.866,2.275,11.062,5.534,15.887,9.962
				c0.109,0.101,0.162,0.249,0.14,0.396c-0.022,0.147-0.116,0.273-0.25,0.338C185.918,272.827,178.895,274.589,172.076,274.589z"/>
			<path fill="#FFFFFF" d="M163.972,256.396c4.383,0.001,8.995,0.726,13.64,2.528c5.807,2.253,11.005,5.522,15.746,9.875
				c-6.95,3.302-13.979,5.344-21.281,5.344c-2.52,0-5.072-0.243-7.664-0.762c-8.03-1.606-14.867-5.625-21-10.969
				c4.806,1.836,9.794,2.855,14.854,3.533c2.928,0.392,5.859,0.701,8.801,0.701c2.185,0,4.374-0.17,6.571-0.605
				c-8.461-4.507-17.606-5.719-27.008-5.719c-0.232,0-0.465,0.001-0.697,0.003C150.914,258.144,157.167,256.396,163.972,256.396
				 M163.972,255.502h-0.002c-7.645,0-14.223,2.178-18.395,4.005c-0.389,0.17-0.604,0.589-0.516,1.004
				c0.088,0.413,0.452,0.708,0.874,0.708c0.002,0,0.004,0,0.005,0c0.231-0.002,0.462-0.003,0.692-0.003
				c5.163,0,9.641,0.378,13.688,1.153c3.744,0.718,7.155,1.774,10.35,3.211c-1.15,0.116-2.345,0.173-3.602,0.173
				c-3.084,0-6.12-0.351-8.683-0.693c-5.819-0.779-10.476-1.886-14.653-3.482c-0.104-0.04-0.212-0.059-0.318-0.059
				c-0.307,0-0.601,0.157-0.767,0.434c-0.223,0.371-0.147,0.849,0.179,1.133c6.903,6.017,13.907,9.671,21.411,11.172
				c2.584,0.517,5.222,0.779,7.84,0.779c6.886,0,13.973-1.776,21.665-5.43c0.269-0.128,0.456-0.38,0.5-0.674
				c0.045-0.294-0.061-0.591-0.279-0.792c-4.865-4.466-10.107-7.753-16.027-10.05C173.509,256.373,168.811,255.503,163.972,255.502
				L163.972,255.502z"/>
		</g>
		<g>
			<path fill-rule="evenodd" clip-rule="evenodd" fill="#010202" d="M159.224,290.475c-0.063,0-0.127-0.013-0.186-0.04
				c-5.927-2.711-10.05-6.299-12.605-10.968c-2.056-3.754-3.009-8.069-2.914-13.19c0.004-0.217,0.163-0.399,0.376-0.434
				c0.024-0.004,0.048-0.005,0.071-0.005c0.188,0,0.358,0.118,0.422,0.301c0.821,2.372,2.026,4.773,3.791,7.557
				c1.407,2.219,2.727,4.065,4.356,5.611c-1.12-4.105-3.354-7.988-7.105-12.402c-0.138-0.162-0.143-0.397-0.013-0.564
				c0.087-0.111,0.219-0.172,0.353-0.172c0.067,0,0.135,0.015,0.198,0.046c3.457,1.712,9.646,5.723,12.243,13.352
				c1.145,3.361,1.622,6.79,1.459,10.482c-0.007,0.148-0.087,0.284-0.213,0.361C159.386,290.453,159.305,290.475,159.224,290.475z"
				/>
			<path fill="#FFFFFF" d="M143.965,266.284c0.943,2.726,2.304,5.233,3.837,7.65c1.545,2.437,3.202,4.788,5.499,6.634
				c-1.142-5.386-4.029-9.835-7.531-13.954c4.491,2.224,9.72,6.346,12.019,13.095c1.126,3.305,1.595,6.715,1.436,10.319
				c-5.275-2.414-9.626-5.71-12.399-10.775C144.62,275.227,143.881,270.843,143.965,266.284 M143.966,265.391
				c-0.047,0-0.094,0.004-0.141,0.012c-0.428,0.067-0.745,0.433-0.753,0.865c-0.097,5.202,0.875,9.59,2.969,13.414
				c1.393,2.544,3.182,4.715,5.47,6.638c2.046,1.718,4.447,3.197,7.341,4.521c0.119,0.054,0.245,0.081,0.372,0.081
				c0.162,0,0.323-0.044,0.466-0.132c0.254-0.154,0.414-0.426,0.427-0.723c0.166-3.748-0.319-7.23-1.482-10.646
				c-1.095-3.214-2.912-6.104-5.401-8.589c-2.005-2.001-4.383-3.689-7.066-5.019c-0.127-0.062-0.262-0.093-0.396-0.093
				c-0.268,0-0.53,0.121-0.704,0.344c-0.062,0.079-0.108,0.166-0.14,0.256c-0.04-0.109-0.078-0.219-0.116-0.328
				C144.684,265.628,144.341,265.391,143.966,265.391L143.966,265.391z M151.521,277.589c-1.036-1.207-1.978-2.576-2.965-4.133
				c-1.354-2.133-2.372-4.036-3.14-5.874C148.376,271.123,150.338,274.323,151.521,277.589L151.521,277.589z"/>
		</g>
		<g>
			<path fill-rule="evenodd" clip-rule="evenodd" fill="#010202" d="M204.584,239.732c-0.138,0-0.272-0.064-0.359-0.183
				c-0.129-0.174-0.113-0.415,0.036-0.572c2.304-2.424,4.405-5.316,6.614-9.103c1.863-3.194,3.296-6.019,4.109-9.086
				c-5.041,4.411-9.171,10.174-11.705,16.36c-0.07,0.17-0.235,0.277-0.413,0.277c-0.027,0-0.056-0.003-0.083-0.008
				c-0.208-0.039-0.36-0.219-0.364-0.431c-0.063-3.582,0.657-7.451,2.084-11.187c1.621-4.245,4.028-8.047,7.153-11.301
				c3.176-3.308,8.458-5.905,13.159-8.079c0.06-0.027,0.124-0.041,0.188-0.041c0.081,0,0.161,0.021,0.231,0.064
				c0.127,0.077,0.208,0.212,0.215,0.36c0.338,6.981-1.937,13.999-6.955,21.453c-3.156,4.689-7.642,8.427-13.712,11.427
				C204.719,239.717,204.651,239.732,204.584,239.732z"/>
			<path fill="#FFFFFF" d="M225.003,206.827c0.373,7.688-2.6,14.825-6.879,21.183c-3.401,5.053-8.116,8.596-13.54,11.275
				c2.636-2.773,4.764-5.905,6.677-9.186c1.929-3.307,3.69-6.693,4.466-10.524c-5.652,4.629-10.142,10.766-12.861,17.405
				c-0.117-6.648,2.561-15.347,9.113-22.171C215.187,211.469,220.658,208.837,225.003,206.827 M225.003,205.934
				c-0.127,0-0.255,0.027-0.375,0.083c-4.738,2.191-10.064,4.812-13.294,8.175c-3.167,3.297-5.605,7.15-7.248,11.451
				c-1.447,3.788-2.178,7.715-2.113,11.354c0.007,0.424,0.312,0.784,0.729,0.862c0.055,0.01,0.11,0.015,0.165,0.015
				c0.356,0,0.687-0.214,0.826-0.555c2.306-5.628,5.947-10.903,10.396-15.109c-0.835,2.453-2.069,4.819-3.599,7.44
				c-2.191,3.756-4.273,6.622-6.553,9.021c-0.298,0.313-0.328,0.797-0.071,1.146c0.173,0.234,0.442,0.363,0.72,0.363
				c0.134,0,0.269-0.03,0.396-0.093c6.142-3.035,10.684-6.822,13.885-11.578c2.341-3.477,4.119-6.94,5.287-10.297
				c1.338-3.846,1.924-7.69,1.743-11.427c-0.015-0.297-0.175-0.567-0.43-0.722C225.324,205.978,225.164,205.934,225.003,205.934
				L225.003,205.934z"/>
		</g>
		<g>
			<path fill-rule="evenodd" clip-rule="evenodd" fill="#010202" d="M170.814,253.757c-0.187,0-0.357-0.117-0.421-0.299
				c-0.072-0.204,0.014-0.431,0.202-0.537c2.914-1.64,5.773-3.787,8.997-6.758c2.711-2.497,4.903-4.768,6.58-7.449
				c-6.271,3-13.659,9.582-18.005,14.88c-0.088,0.106-0.215,0.163-0.346,0.163c-0.07,0-0.142-0.017-0.208-0.051
				c-0.188-0.099-0.279-0.315-0.221-0.52c0.967-3.356,3.26-7.523,6.291-11.433c3.38-4.358,7.348-7.93,11.173-10.057
				c4.007-2.228,9.818-3.158,14.952-3.855c0.021-0.003,0.04-0.004,0.061-0.004c0.126,0,0.248,0.054,0.333,0.149
				c0.099,0.11,0.136,0.264,0.1,0.407c-1.729,6.773-5.965,12.812-12.951,18.463c-4.396,3.555-9.781,5.811-16.465,6.894
				C170.862,253.755,170.838,253.757,170.814,253.757z"/>
			<path fill="#FFFFFF" d="M199.87,228.284c-1.903,7.459-6.842,13.407-12.8,18.227c-4.735,3.83-10.284,5.831-16.256,6.8
				c3.335-1.876,6.289-4.246,9.082-6.818c2.814-2.594,5.493-5.313,7.36-8.748c-6.763,2.764-14.885,10.02-19.435,15.566
				c1.841-6.389,8.983-16.626,17.252-21.223C189.122,229.837,195.126,228.929,199.87,228.284 M199.87,227.391
				c-0.04,0-0.08,0.003-0.12,0.009c-5.174,0.702-11.035,1.642-15.11,3.907c-3.876,2.156-7.893,5.769-11.308,10.173
				c-3.064,3.952-5.386,8.175-6.368,11.583c-0.117,0.408,0.067,0.842,0.443,1.039c0.132,0.069,0.274,0.103,0.415,0.103
				c0.261,0,0.517-0.114,0.691-0.327c3.961-4.829,10.46-10.729,16.303-13.96c-1.5,2.046-3.343,3.907-5.525,5.918
				c-3.198,2.946-6.031,5.074-8.914,6.696c-0.378,0.213-0.549,0.665-0.405,1.074c0.127,0.363,0.469,0.599,0.843,0.599
				c0.047,0,0.096-0.004,0.144-0.012c6.763-1.097,12.217-3.382,16.674-6.987c3.26-2.636,5.978-5.425,8.079-8.289
				c2.409-3.283,4.1-6.786,5.024-10.41c0.073-0.288-0.001-0.594-0.198-0.815C200.366,227.498,200.123,227.391,199.87,227.391
				L199.87,227.391z"/>
		</g>
		<g>
			<path fill-rule="evenodd" clip-rule="evenodd" fill="#010202" d="M232.945,214.945c-0.099,0-0.198-0.032-0.28-0.099
				c-0.169-0.136-0.216-0.372-0.112-0.562c1.387-2.53,2.167-5.488,2.922-8.348c0.158-0.601,0.322-1.222,0.487-1.821
				c0.905-3.281,1.517-6.136,1.531-9.054c-3.605,5.377-6.189,12.067-6.984,18.158c-0.027,0.21-0.198,0.372-0.41,0.388
				c-0.011,0.001-0.021,0.001-0.033,0.001c-0.198,0-0.374-0.131-0.429-0.324c-1.603-5.64-1.185-15.003,3.362-23.206
				c2.5-4.513,6.832-8.469,9.191-10.425c0.081-0.067,0.182-0.103,0.285-0.103c0.042,0,0.084,0.006,0.126,0.018
				c0.143,0.042,0.255,0.152,0.3,0.294c2.148,6.767,2.009,14.028-0.405,20.997c-1.939,5.602-5.054,10.304-9.257,13.976
				C233.155,214.908,233.05,214.945,232.945,214.945z"/>
			<path fill="#FFFFFF" d="M242.476,179.997c2.17,6.835,1.935,13.971-0.401,20.717c-1.856,5.361-4.885,10.077-9.129,13.785
				c1.711-3.126,2.508-6.854,3.447-10.265c0.948-3.438,1.726-6.908,1.51-10.544c-3.984,5.518-6.972,12.845-7.836,19.472
				c-1.693-5.958-0.949-15.159,3.323-22.867C235.481,186.52,239.042,182.844,242.476,179.997 M242.476,179.104
				c-0.206,0-0.408,0.071-0.57,0.206c-2.384,1.977-6.762,5.976-9.298,10.552c-2.061,3.719-3.444,8.011-4.003,12.411
				c-0.51,4.019-0.296,7.973,0.603,11.134c0.109,0.387,0.462,0.649,0.858,0.649c0.022,0,0.044-0.001,0.066-0.003
				c0.423-0.031,0.766-0.354,0.82-0.775c0.719-5.514,2.921-11.523,6.023-16.582c-0.185,2.323-0.72,4.673-1.444,7.301
				c-0.165,0.603-0.33,1.225-0.488,1.826c-0.748,2.834-1.522,5.765-2.882,8.247c-0.208,0.38-0.113,0.854,0.225,1.126
				c0.163,0.132,0.361,0.197,0.56,0.197c0.21,0,0.42-0.074,0.588-0.221c4.262-3.725,7.42-8.49,9.385-14.166
				c2.445-7.062,2.587-14.419,0.409-21.279c-0.09-0.283-0.315-0.503-0.601-0.587C242.645,179.115,242.56,179.104,242.476,179.104
				L242.476,179.104z"/>
		</g>
		<g>
			<path fill-rule="evenodd" clip-rule="evenodd" fill="#010202" d="M252.097,182.724c-0.048,0-0.097-0.007-0.144-0.023
				c-0.205-0.069-0.331-0.276-0.299-0.49c0.54-3.55,0.131-8.585-0.14-11.916c-0.275-3.39-0.68-6.279-1.666-9.023
				c-1.53,6.378-1.694,14.64-0.357,20.605c0.047,0.206-0.059,0.417-0.252,0.505c-0.06,0.026-0.122,0.039-0.184,0.039
				c-0.14,0-0.275-0.065-0.362-0.185c-3.413-4.712-6.247-14.764-4.777-24.111c0.801-5.096,3.513-10.298,5.059-12.944
				c0.074-0.128,0.208-0.211,0.356-0.221c0.01-0.001,0.02-0.001,0.029-0.001c0.138,0,0.269,0.063,0.354,0.174
				c4.339,5.619,6.698,12.488,6.821,19.862c0.102,6.067-1.449,12.772-4.047,17.498C252.407,182.639,252.256,182.724,252.097,182.724
				z"/>
			<path fill="#FFFFFF" d="M249.36,145.405c4.383,5.676,6.609,12.459,6.729,19.597c0.095,5.673-1.277,12.337-3.992,17.275
				c0.535-3.523,0.149-8.494-0.137-12.02c-0.289-3.555-0.749-7.081-2.198-10.422c-1.851,6.55-2.167,15.615-0.706,22.138
				c-3.634-5.017-6.067-15.074-4.698-23.78C245.027,153.931,247.111,149.256,249.36,145.405 M249.36,144.511
				c-0.02,0-0.039,0-0.058,0.002c-0.297,0.019-0.564,0.185-0.715,0.441c-1.561,2.674-4.301,7.933-5.113,13.101
				c-0.657,4.178-0.486,9.007,0.481,13.597c0.921,4.37,2.476,8.222,4.376,10.846c0.172,0.238,0.444,0.37,0.724,0.37
				c0.124,0,0.249-0.026,0.367-0.079c0.387-0.175,0.597-0.597,0.505-1.01c-1.213-5.41-1.178-12.728,0.002-18.772
				c0.617,2.237,0.92,4.618,1.14,7.324c0.253,3.109,0.676,8.314,0.144,11.813c-0.064,0.428,0.187,0.841,0.597,0.979
				c0.095,0.032,0.191,0.048,0.287,0.048c0.318,0,0.622-0.171,0.782-0.463c2.634-4.79,4.206-11.581,4.104-17.721
				c-0.125-7.472-2.517-14.433-6.915-20.129C249.897,144.639,249.636,144.511,249.36,144.511L249.36,144.511z"/>
		</g>
		<g>
			<path fill-rule="evenodd" clip-rule="evenodd" fill="#010202" d="M256.999,147.146c-0.105,0-0.211-0.038-0.295-0.112
				c-4.118-3.631-7.837-12.225-8.289-19.156c-0.216-3.302,1.104-7.413,2.163-10.716c0.104-0.322,0.205-0.638,0.303-0.946
				c0.045-0.142,0.157-0.252,0.3-0.293c0.042-0.012,0.084-0.018,0.126-0.018c0.103,0,0.204,0.035,0.285,0.103
				c3.975,3.294,6.614,8.083,8.309,15.072c0.844,3.476,2.041,10.056,0.593,15.066c-0.056,0.193-0.232,0.323-0.43,0.323
				c-0.016,0-0.031,0-0.047-0.002c-0.216-0.022-0.384-0.197-0.398-0.413c-0.142-2.002-1.118-4.683-1.979-7.048
				c-0.361-0.99-0.701-1.925-0.956-2.742c-0.796-2.551-1.604-4.712-2.799-6.661c-0.02,5.447,1.415,12.458,3.519,16.907
				c0.091,0.192,0.034,0.421-0.136,0.548C257.188,147.115,257.094,147.146,256.999,147.146z"/>
			<path fill="#FFFFFF" d="M251.307,116.35c4.525,3.751,6.781,9.146,8.16,14.833c1.096,4.52,1.88,10.399,0.597,14.836
				c-0.205-2.914-2.091-7.123-2.954-9.891c-0.87-2.791-1.871-5.528-3.632-7.939c-0.302,5.571,1.181,13.556,3.521,18.509
				c-3.808-3.358-7.668-11.642-8.139-18.85C248.63,124.318,250.201,119.834,251.307,116.35 M251.307,115.457
				c-0.084,0-0.169,0.012-0.252,0.036c-0.285,0.083-0.51,0.304-0.6,0.587c-0.098,0.308-0.199,0.623-0.302,0.945
				c-1.072,3.339-2.405,7.495-2.185,10.881c0.229,3.504,1.257,7.472,2.893,11.172c1.589,3.592,3.559,6.537,5.547,8.29
				c0.168,0.148,0.38,0.224,0.592,0.224c0.188,0,0.377-0.06,0.536-0.18c0.339-0.255,0.452-0.712,0.271-1.096
				c-1.85-3.914-3.176-9.836-3.431-14.889c0.728,1.492,1.307,3.125,1.881,4.967c0.258,0.827,0.601,1.767,0.963,2.762
				c0.851,2.337,1.816,4.987,1.952,6.926c0.031,0.432,0.367,0.78,0.798,0.826c0.031,0.003,0.063,0.005,0.095,0.005
				c0.394,0,0.746-0.26,0.857-0.645c1.478-5.11,0.267-11.776-0.587-15.295c-1.719-7.087-4.406-11.952-8.458-15.311
				C251.715,115.527,251.513,115.457,251.307,115.457L251.307,115.457z"/>
		</g>
		<g>
			<path fill-rule="evenodd" clip-rule="evenodd" fill="#010202" d="M253.814,111.006c-0.062,0-0.124-0.013-0.183-0.04
				c-5.009-2.249-11.105-9.355-13.591-15.842c-1.185-3.09-1.142-7.408-1.107-10.877c0.003-0.338,0.007-0.669,0.009-0.992
				c0.001-0.148,0.075-0.287,0.199-0.369c0.074-0.049,0.161-0.075,0.247-0.075c0.058,0,0.116,0.011,0.171,0.034
				c4.771,1.969,8.712,5.762,12.4,11.935c3.5,5.859,5.236,10.502,5.308,14.195c0.004,0.217-0.148,0.405-0.36,0.447
				c-0.029,0.006-0.059,0.009-0.087,0.009c-0.182,0-0.349-0.111-0.416-0.285c-0.684-1.758-2.403-3.896-3.921-5.782
				c-0.775-0.964-1.509-1.875-2.062-2.68c-1.516-2.201-2.928-4.026-4.646-5.534c1.594,5.208,5.04,11.48,8.367,15.107
				c0.144,0.156,0.157,0.392,0.033,0.563C254.091,110.94,253.954,111.006,253.814,111.006z"/>
			<path fill="#FFFFFF" d="M239.389,83.258c5.435,2.243,9.186,6.728,12.188,11.751c2.386,3.993,5.155,9.356,5.244,13.975
				c-1.059-2.723-4.387-6.165-6.031-8.553c-1.657-2.407-3.425-4.725-5.82-6.507c1.361,5.41,5.143,12.599,8.846,16.636
				c-4.632-2.08-10.771-8.849-13.356-15.595C239.192,91.662,239.365,86.914,239.389,83.258 M239.389,82.364
				c-0.173,0-0.346,0.051-0.494,0.149c-0.248,0.165-0.397,0.441-0.399,0.738c-0.002,0.322-0.005,0.653-0.009,0.991
				c-0.034,3.507-0.077,7.872,1.138,11.042c1.256,3.279,3.412,6.765,6.071,9.814c2.581,2.961,5.335,5.189,7.753,6.275
				c0.118,0.053,0.243,0.079,0.366,0.079c0.279,0,0.552-0.132,0.725-0.371c0.248-0.344,0.221-0.814-0.066-1.127
				c-2.927-3.191-5.947-8.455-7.687-13.205c1.137,1.21,2.174,2.598,3.268,4.187c0.562,0.818,1.301,1.735,2.082,2.707
				c1.497,1.861,3.193,3.971,3.853,5.664c0.135,0.349,0.47,0.57,0.832,0.57c0.058,0,0.115-0.006,0.174-0.017
				c0.425-0.084,0.728-0.46,0.72-0.894c-0.072-3.773-1.829-8.488-5.371-14.416c-3.74-6.26-7.748-10.111-12.613-12.119
				C239.62,82.387,239.504,82.364,239.389,82.364L239.389,82.364z"/>
		</g>
		<g>
			<path fill-rule="evenodd" clip-rule="evenodd" fill="#010202" d="M239.28,76.881c-0.021,0-0.044-0.001-0.065-0.005
				c-4.799-0.704-11.692-5.273-15.366-10.185c-1.754-2.344-2.757-6.021-3.563-8.976c-0.078-0.287-0.155-0.568-0.23-0.841
				c-0.04-0.143-0.006-0.297,0.091-0.41c0.086-0.1,0.21-0.156,0.34-0.156c0.017,0,0.034,0.001,0.051,0.003
				c4.531,0.523,8.793,2.796,13.413,7.152c6.256,5.897,7.766,8.978,8.383,11.002c0.062,0.207-0.032,0.43-0.225,0.528
				c-0.064,0.033-0.134,0.048-0.203,0.048c-0.136,0-0.27-0.062-0.356-0.177c-0.979-1.294-3.083-2.754-4.939-4.042
				c-0.99-0.687-1.925-1.335-2.613-1.905c-1.755-1.453-3.341-2.629-5.088-3.486c2.613,3.985,6.969,8.38,10.606,10.622
				c0.181,0.111,0.259,0.334,0.186,0.533C239.635,76.765,239.466,76.881,239.28,76.881z"/>
			<path fill="#FFFFFF" d="M220.485,56.754c5.146,0.595,9.405,3.496,13.158,7.034c2.982,2.812,7.075,6.913,8.261,10.808
				c-1.553-2.054-5.656-4.392-7.625-6.022c-1.983-1.643-4.04-3.183-6.499-4.118c2.455,4.26,7.389,9.445,11.5,11.978
				c-4.428-0.65-11.261-4.913-15.074-10.011C222.339,63.927,221.344,59.86,220.485,56.754 M220.485,55.861
				c-0.26,0-0.508,0.113-0.679,0.312c-0.193,0.226-0.262,0.533-0.183,0.819c0.075,0.273,0.152,0.553,0.229,0.839
				c0.816,2.992,1.833,6.714,3.637,9.126c1.861,2.488,4.537,4.934,7.535,6.887c2.913,1.898,5.798,3.131,8.125,3.473
				c0.043,0.006,0.087,0.009,0.13,0.009c0.371,0,0.709-0.231,0.839-0.588c0.146-0.398-0.01-0.844-0.371-1.066
				c-3.105-1.914-6.742-5.419-9.336-8.877c1.087,0.693,2.155,1.52,3.298,2.466c0.703,0.582,1.646,1.236,2.644,1.928
				c1.829,1.269,3.902,2.707,4.838,3.944c0.174,0.23,0.44,0.355,0.713,0.355c0.138,0,0.276-0.032,0.406-0.098
				c0.386-0.197,0.574-0.642,0.448-1.056c-1.197-3.932-4.97-7.867-8.503-11.198c-4.693-4.425-9.037-6.735-13.668-7.271
				C220.554,55.863,220.52,55.861,220.485,55.861L220.485,55.861z"/>
		</g>
		<g>
			<path fill-rule="evenodd" clip-rule="evenodd" fill="#010202" d="M181.202,31.824c-4.246,0-10.75-0.964-15.105-3.681
				c-2.062-1.287-4.264-4.527-6.032-7.13c-0.582-0.856-1.132-1.666-1.609-2.305c-0.089-0.119-0.112-0.274-0.063-0.415
				c0.05-0.141,0.165-0.247,0.309-0.285c1.647-0.431,3.857-0.658,6.393-0.658c4.868,0,10.222,0.844,13.321,2.101
				c3.849,1.56,11.562,7.255,13.925,11.627c0.096,0.178,0.061,0.398-0.087,0.537c-0.085,0.081-0.195,0.122-0.307,0.122
				c-0.08,0-0.162-0.022-0.234-0.066c-2.166-1.336-11.585-4.992-13.944-5.775c-2.161-0.718-4.063-1.24-6.005-1.405
				c3.88,2.768,9.531,5.285,13.735,6.055c0.208,0.038,0.361,0.218,0.366,0.43c0.004,0.212-0.141,0.398-0.348,0.445
				C184.363,31.685,182.872,31.824,181.202,31.824C181.203,31.824,181.203,31.824,181.202,31.824z"/>
			<path fill="#FFFFFF" d="M165.093,17.797c4.677,0,9.984,0.783,13.153,2.068c3.799,1.54,11.392,7.155,13.699,11.425
				c-2.191-1.352-11.612-5.014-14.038-5.819c-2.41-0.8-4.849-1.483-7.438-1.483c-0.037,0-0.075,0-0.112,0
				c3.832,3.081,10.31,6.126,15.059,6.997c-1.125,0.258-2.58,0.393-4.214,0.393c-4.696,0-10.861-1.114-14.869-3.614
				c-2.645-1.65-5.594-6.74-7.52-9.323C160.502,17.999,162.716,17.797,165.093,17.797 M165.093,16.903
				c-2.572,0-4.821,0.232-6.505,0.673c-0.288,0.075-0.52,0.289-0.617,0.569c-0.099,0.28-0.051,0.591,0.127,0.83
				c0.471,0.632,1.018,1.437,1.597,2.29c1.793,2.638,4.024,5.921,6.166,7.258c4.436,2.767,11.037,3.749,15.342,3.749
				c1.702,0,3.229-0.143,4.413-0.415c0.414-0.095,0.703-0.467,0.694-0.891c-0.01-0.424-0.315-0.783-0.732-0.859
				c-3.589-0.658-8.249-2.607-11.919-4.891c1.265,0.253,2.559,0.636,3.968,1.104c2.348,0.78,11.709,4.411,13.851,5.731
				c0.145,0.089,0.308,0.133,0.469,0.133c0.223,0,0.443-0.083,0.614-0.244c0.294-0.278,0.364-0.718,0.172-1.074
				c-1.485-2.749-4.722-5.572-6.519-7.01c-2.695-2.157-5.619-4.003-7.631-4.819C175.385,17.741,170.09,16.903,165.093,16.903
				L165.093,16.903z"/>
		</g>
		<g>
			<path fill-rule="evenodd" clip-rule="evenodd" fill="#010202" d="M209.847,50.299c-4.88,0-10.952-1.816-15.11-4.519
				c-2.454-1.595-4.664-4.7-6.44-7.195c-0.173-0.242-0.342-0.479-0.507-0.71c-0.087-0.121-0.108-0.277-0.057-0.416
				s0.17-0.244,0.314-0.278c1.35-0.326,2.762-0.492,4.197-0.492c3.293,0,6.744,0.819,10.859,2.577
				c7.907,3.377,10.387,5.748,11.664,7.435c0.13,0.173,0.118,0.415-0.029,0.573c-0.087,0.094-0.206,0.143-0.327,0.143
				c-0.084,0-0.167-0.023-0.241-0.071c-1.365-0.877-3.845-1.521-6.031-2.09c-1.166-0.303-2.268-0.589-3.11-0.886
				c-2.147-0.758-4.042-1.315-5.978-1.516c3.827,2.839,9.431,5.461,13.62,6.31c0.208,0.042,0.357,0.225,0.357,0.437
				c0.001,0.212-0.147,0.395-0.354,0.438C211.849,50.211,210.898,50.299,209.847,50.299L209.847,50.299z"/>
			<path fill="#FFFFFF" d="M192.244,37.136c3.641,0,7.23,1.065,10.685,2.541c3.769,1.61,9.025,4.048,11.482,7.294
				c-2.166-1.392-6.824-2.171-9.234-3.021c-2.429-0.857-4.89-1.594-7.521-1.623c3.773,3.151,10.193,6.316,14.926,7.275
				c-0.806,0.169-1.729,0.251-2.735,0.251c-4.459,0-10.511-1.616-14.867-4.447c-2.613-1.699-4.95-5.173-6.828-7.791
				C189.52,37.284,190.886,37.136,192.244,37.136 M192.244,36.242c-1.471,0-2.919,0.169-4.303,0.504
				c-0.289,0.07-0.523,0.279-0.627,0.557c-0.104,0.279-0.062,0.59,0.111,0.832c0.165,0.23,0.334,0.467,0.506,0.709
				c1.798,2.526,4.036,5.669,6.562,7.311c4.225,2.746,10.395,4.591,15.354,4.591c1.082,0,2.063-0.091,2.919-0.27
				c0.414-0.087,0.711-0.454,0.71-0.877c-0.002-0.424-0.301-0.789-0.716-0.873c-3.576-0.725-8.199-2.761-11.826-5.112
				c1.259,0.276,2.548,0.684,3.946,1.177c0.86,0.304,1.971,0.592,3.146,0.897c2.154,0.56,4.597,1.194,5.901,2.033
				c0.148,0.096,0.316,0.142,0.482,0.142c0.242,0,0.481-0.098,0.656-0.286c0.295-0.318,0.318-0.801,0.057-1.146
				c-2.479-3.277-7.379-5.669-11.844-7.576C199.106,37.072,195.6,36.242,192.244,36.242L192.244,36.242z"/>
		</g>
		<g>
			<path fill-rule="evenodd" clip-rule="evenodd" fill="#010202" d="M213.084,39.189c-0.041,0-0.082-0.006-0.123-0.018
				c-7.808-2.246-13.848-5.821-18.464-10.929c-5.068-5.608-8.12-12.704-9.329-21.696c-0.02-0.147,0.035-0.294,0.146-0.393
				c0.083-0.074,0.189-0.113,0.298-0.113c0.036,0,0.073,0.005,0.109,0.014c8.85,2.242,15.709,6.224,20.971,12.173
				c1.664,1.882,3.833,5.635,5.659,9.796c0.911,2.077,2.972,7.11,2.412,8.992c-0.051,0.169-0.196,0.293-0.371,0.316
				c-0.02,0.002-0.038,0.004-0.058,0.004c-0.154,0-0.3-0.081-0.382-0.215c-2.057-3.387-4.524-6.621-7.335-9.612
				c-2.351-2.503-4.893-5.083-7.974-6.996c2.871,6.36,7.582,12.074,14.723,17.884c0.165,0.134,0.213,0.365,0.114,0.553
				C213.402,39.1,213.247,39.189,213.084,39.189z"/>
			<path fill="#FFFFFF" d="M185.611,6.488c8.086,2.048,15.16,5.721,20.745,12.037c3.48,3.935,8.753,15.755,7.978,18.364
				c-2.14-3.523-4.613-6.729-7.391-9.686c-2.764-2.942-5.619-5.797-9.244-7.755c3.247,7.933,8.844,13.973,15.385,19.295
				c-7.031-2.022-13.307-5.323-18.256-10.799C189.348,21.88,186.695,14.555,185.611,6.488 M185.611,5.595
				c-0.217,0-0.43,0.079-0.595,0.227c-0.222,0.197-0.331,0.492-0.291,0.786c1.222,9.084,4.31,16.259,9.439,21.936
				c4.675,5.172,10.782,8.789,18.673,11.059c0.082,0.023,0.165,0.035,0.246,0.035c0.326,0,0.635-0.179,0.792-0.479
				c0.197-0.376,0.102-0.839-0.228-1.107c-3.562-2.898-6.442-5.693-8.804-8.544c-2.068-2.497-3.751-5.042-5.099-7.718
				c2.452,1.758,4.566,3.92,6.546,6.027c2.789,2.968,5.237,6.178,7.278,9.538c0.164,0.269,0.454,0.43,0.764,0.43
				c0.038,0,0.076-0.002,0.114-0.008c0.351-0.045,0.642-0.292,0.742-0.631c0.238-0.8,0.099-2.081-0.427-3.917
				c-0.439-1.535-1.132-3.396-2.004-5.381c-2.204-5.021-4.407-8.412-5.733-9.913c-5.323-6.019-12.257-10.046-21.196-12.31
				C185.758,5.604,185.684,5.595,185.611,5.595L185.611,5.595z"/>
		</g>
		<g>
			<path fill-rule="evenodd" clip-rule="evenodd" fill="#010202" d="M182.92,18.189c-0.025,0-0.053-0.002-0.079-0.007
				c-6.572-1.177-11.663-3.81-15.562-8.049c-2.566-2.792-4.455-5.759-5.772-9.074c-0.059-0.146-0.035-0.312,0.06-0.436
				c0.086-0.111,0.217-0.176,0.355-0.176c0.017,0,0.033,0.001,0.051,0.003c4.934,0.562,9.105,1.949,12.753,4.241
				c4.131,2.596,7.39,6.363,9.687,11.196c0.092,0.194,0.033,0.426-0.141,0.553c-0.079,0.058-0.171,0.085-0.263,0.085
				c-0.111,0-0.222-0.041-0.307-0.122c-3.216-3.04-6.466-5.176-9.909-6.509c0.331,0.407,0.674,0.793,1.024,1.152
				c2.238,2.29,4.971,3.991,7.808,5.675c0.175,0.104,0.331,0.221,0.482,0.333c0.064,0.048,0.129,0.096,0.194,0.143
				c0.197,0.141,0.247,0.414,0.11,0.615l-0.122,0.18C183.206,18.116,183.066,18.189,182.92,18.189z"/>
			<path fill="#FFFFFF" d="M161.922,0.893c4.652,0.53,8.8,1.809,12.565,4.175c4.278,2.688,7.356,6.453,9.521,11.01
				c-3.189-3.015-6.714-5.464-10.924-6.919c-0.014,0.295,0.007,0.567,0.146,0.746c0.395,0.506,0.817,0.994,1.267,1.454
				c2.308,2.361,5.086,4.078,7.899,5.747c0.226,0.134,0.431,0.303,0.646,0.456c-0.041,0.06-0.082,0.12-0.123,0.181
				c-5.908-1.059-11.168-3.407-15.312-7.912C165.232,7.247,163.304,4.37,161.922,0.893 M161.922,0c-0.276,0-0.54,0.128-0.71,0.351
				c-0.19,0.25-0.236,0.581-0.12,0.873c1.338,3.366,3.255,6.379,5.859,9.212c3.967,4.313,9.139,6.991,15.812,8.187
				c0.053,0.009,0.105,0.014,0.157,0.014c0.294,0,0.573-0.145,0.741-0.394l0.073-0.109l0.048-0.07
				c0.256-0.378,0.185-0.883-0.153-1.176c0.119,0.057,0.25,0.085,0.38,0.085c0.184,0,0.368-0.056,0.525-0.171
				c0.348-0.253,0.466-0.718,0.281-1.106c-2.333-4.911-5.648-8.741-9.853-11.383c-3.705-2.328-7.938-3.737-12.94-4.307
				C161.989,0.001,161.955,0,161.922,0L161.922,0z M183.315,16.652c-0.139-0.103-0.292-0.214-0.462-0.315
				c-2.635-1.563-5.176-3.141-7.295-5.185C178.217,12.448,180.776,14.265,183.315,16.652L183.315,16.652z"/>
		</g>
	</g>
	<g>
		<path fill="#631414" d="M141.732,23.691c-61.357,0-111.098,49.739-111.098,111.096c0,61.357,49.74,111.098,111.098,111.098
			c61.356,0,111.096-49.74,111.096-111.098C252.828,73.43,203.089,23.691,141.732,23.691z"/>
		<path fill="#010202" d="M233.825,72.63c-4.136-6.116-8.865-11.798-14.104-16.962c-2.672-2.634-5.476-5.133-8.401-7.487
			c-19.043-15.32-43.244-24.489-69.588-24.489c-26.343,0-50.547,9.169-69.589,24.489c-2.926,2.354-5.729,4.853-8.4,7.485
			c-5.239,5.165-9.968,10.845-14.104,16.961c-11.998,17.739-19.004,39.131-19.004,62.16c0,55.657,40.928,101.755,94.329,109.839
			c3.776,0.574,7.615,0.955,11.508,1.137c1.744,0.08,3.498,0.122,5.261,0.122c1.763,0,3.518-0.042,5.261-0.122
			c3.892-0.182,7.731-0.562,11.508-1.137c53.4-8.084,94.327-54.182,94.327-109.839C252.828,111.76,245.822,90.369,233.825,72.63z
			 M40.165,134.787c0-18.85,5.136-36.502,14.083-51.631l66.105,150.944C74.525,224.283,40.165,183.547,40.165,134.787z
			 M141.732,233.75L67.865,65.079c6.137-6.501,13.125-12.194,20.783-16.898h106.168c7.658,4.704,14.646,10.397,20.783,16.898
			L141.732,233.75z M163.111,234.101l66.104-150.944c8.946,15.129,14.083,32.781,14.083,51.631
			C243.299,183.547,208.939,224.283,163.111,234.101z"/>
		<g>
			<defs>
				<path id="SVGID_1_" d="M141.732,19.521c-63.66,0-115.267,51.606-115.267,115.266c0,63.66,51.607,115.267,115.267,115.267
					c63.66,0,115.266-51.606,115.266-115.267C256.998,71.127,205.393,19.521,141.732,19.521z"/>
			</defs>
			<clipPath id="SVGID_2_">
				<use xlink:href="#SVGID_1_"  overflow="visible"/>
			</clipPath>
			<g clip-path="url(#SVGID_2_)">
				<linearGradient id="SVGID_3_" gradientUnits="userSpaceOnUse" x1="141.7446" y1="25.0078" x2="141.7446" y2="223.6568">
					<stop  offset="0.2961" style="stop-color:#FFFFFF"/>
					<stop  offset="0.4094" style="stop-color:#FBFBFB"/>
					<stop  offset="0.5163" style="stop-color:#F0F0F0"/>
					<stop  offset="0.6208" style="stop-color:#DDDDDE"/>
					<stop  offset="0.7237" style="stop-color:#C2C2C4"/>
					<stop  offset="0.8255" style="stop-color:#9FA0A3"/>
					<stop  offset="0.925" style="stop-color:#76767A"/>
					<stop  offset="1" style="stop-color:#515257"/>
				</linearGradient>
				<polygon fill="url(#SVGID_3_)" points="103.104,124.601 104.934,119.844 141.732,24.37 178.686,120.248 180.386,124.601 				"/>
				<path fill="#010202" d="M141.732,32.858l34.104,88.487l0.079,0.203h-68.367l0.234-0.607L141.732,32.858 M141.732,15.882
					l-5.697,14.78l-33.95,88.083l-0.235,0.611l-3.193,8.297h8.891h68.367h8.939l-3.253-8.327l-0.075-0.192l-34.099-88.472
					L141.732,15.882L141.732,15.882z"/>
			</g>
			<g clip-path="url(#SVGID_2_)">
				<linearGradient id="SVGID_4_" gradientUnits="userSpaceOnUse" x1="141.7324" y1="18.895" x2="141.7324" y2="212.2851">
					<stop  offset="0.2961" style="stop-color:#FFFFFF"/>
					<stop  offset="0.4094" style="stop-color:#FBFBFB"/>
					<stop  offset="0.5163" style="stop-color:#F0F0F0"/>
					<stop  offset="0.6208" style="stop-color:#DDDDDE"/>
					<stop  offset="0.7237" style="stop-color:#C2C2C4"/>
					<stop  offset="0.8255" style="stop-color:#9FA0A3"/>
					<stop  offset="0.925" style="stop-color:#76767A"/>
					<stop  offset="1" style="stop-color:#515257"/>
				</linearGradient>
				<polygon fill="url(#SVGID_4_)" points="178.237,211.914 141.732,167.775 105.227,211.914 69.448,211.914 95.284,144.88 
					188.181,144.88 214.018,211.914 				"/>
				<path fill="#010202" d="M186.086,147.933l23.483,60.929h-29.896l-35.532-42.963l-2.409-2.914l-2.409,2.914l-35.533,42.963
					H73.896l23.483-60.929H186.086 M190.276,141.828h-4.19H97.378h-4.19l-1.507,3.91l-23.483,60.929L65,214.967h8.896h29.895h2.874
					l1.831-2.214l33.237-40.188l33.237,40.188l1.831,2.214h2.873h29.896h8.896l-3.199-8.301l-23.482-60.929L190.276,141.828
					L190.276,141.828z"/>
			</g>
		</g>
		<path fill="#E52620" d="M141.732,19.521c-63.66,0-115.267,51.606-115.267,115.266c0,63.66,51.607,115.267,115.267,115.267
			c63.66,0,115.266-51.606,115.266-115.267C256.998,71.127,205.393,19.521,141.732,19.521z M141.732,245.885
			c-61.357,0-111.098-49.741-111.098-111.098S80.375,23.691,141.732,23.691c61.356,0,111.096,49.739,111.096,111.096
			S203.089,245.885,141.732,245.885z"/>
	</g>
	<g>
		<linearGradient id="SVGID_5_" gradientUnits="userSpaceOnUse" x1="118.5884" y1="214.0332" x2="118.5884" y2="284.6466">
			<stop  offset="0.2507" style="stop-color:#FFFFFF"/>
			<stop  offset="1" style="stop-color:#515257"/>
		</linearGradient>
		<path fill="url(#SVGID_5_)" d="M119.027,285.958c-4.507,0-8.55-0.805-12.015-2.392c-3.581-1.64-6.165-4.132-7.682-7.407
			c-1.484-3.205-2.206-7.943-2.206-14.484v-4.942h19.408v5.485c0,4.285,0.149,7.349,0.442,9.107c0.204,1.224,0.744,1.7,1.926,1.7
			c0.645,0,0.948-0.235,1.12-0.412c0.301-0.31,0.458-0.608,0.479-0.915c0.04-0.577,0.088-3.235,0.144-7.9v-13.402
			c0-3.013-0.392-4.143-0.625-4.549c-0.211-0.368-0.56-0.744-1.534-0.744c-0.469,0-0.824,0.123-1.12,0.388
			c-0.345,0.309-0.563,0.62-0.649,0.925c-0.055,0.194-0.183,0.918-0.183,3.438v1.266H97.266l0.763-36.619h38.724v13.351h-20.929
			v7.243c2.479-1.942,5.441-2.923,8.844-2.923c4.999,0,8.862,1.452,11.482,4.316c2.626,2.873,3.903,8.065,3.903,15.873v9.649
			c0,4.922-0.234,8.455-0.715,10.803c-0.498,2.427-1.571,4.699-3.191,6.754c-1.641,2.081-3.94,3.692-6.833,4.786
			C126.493,285.418,123.033,285.958,119.027,285.958z"/>
		<path fill="#010202" d="M135.486,215.765v10.819h-20.929v11.488c2.617-3.092,5.987-4.637,10.109-4.637
			c4.65,0,8.167,1.302,10.548,3.905c2.381,2.604,3.572,7.61,3.572,15.019v9.649c0,4.79-0.23,8.307-0.689,10.548
			c-0.459,2.242-1.441,4.317-2.945,6.225c-1.504,1.908-3.6,3.37-6.287,4.387c-2.688,1.016-5.967,1.524-9.838,1.524
			c-4.345,0-8.174-0.759-11.488-2.276c-3.314-1.518-5.667-3.781-7.06-6.789c-1.393-3.008-2.089-7.658-2.089-13.952v-3.677h16.877
			v4.22c0,4.373,0.153,7.478,0.459,9.315c0.306,1.838,1.364,2.758,3.175,2.758c0.835,0,1.51-0.265,2.026-0.794
			c0.515-0.529,0.794-1.101,0.836-1.713c0.042-0.612,0.09-3.272,0.146-7.979v-13.409c0-2.534-0.265-4.261-0.794-5.18
			c-0.529-0.919-1.406-1.379-2.631-1.379c-0.78,0-1.435,0.237-1.964,0.71c-0.529,0.474-0.871,0.982-1.023,1.525
			c-0.153,0.543-0.229,1.803-0.229,3.78h-16.71l0.71-34.088H135.486 M138.018,213.233h-2.531H99.268h-2.479l-0.052,2.479
			l-0.71,34.088l-0.054,2.584h2.584h16.71h2.531v-2.531c0-2.328,0.113-2.986,0.136-3.097c0.01-0.024,0.065-0.136,0.274-0.322
			c0.027-0.024,0.073-0.065,0.275-0.065c0.283,0,0.39,0.05,0.402,0.056c0,0.002,0.015,0.018,0.036,0.056
			c0.046,0.079,0.456,0.88,0.456,3.916v13.395c-0.067,5.612-0.111,7.344-0.138,7.786c-0.015,0.024-0.05,0.077-0.125,0.154
			c-0.002,0.003-0.004,0.004-0.006,0.006c-0.015,0.005-0.076,0.022-0.207,0.022c-0.337,0-0.469-0.059-0.493-0.07
			c-0.018-0.022-0.117-0.163-0.185-0.571c-0.282-1.69-0.425-4.685-0.425-8.899v-4.22v-2.531h-2.531H98.391h-2.531v2.531v3.677
			c0,6.729,0.76,11.641,2.323,15.017c1.646,3.557,4.44,6.257,8.303,8.026c3.632,1.663,7.852,2.506,12.542,2.506
			c4.159,0,7.77-0.567,10.733-1.688c3.112-1.177,5.595-2.922,7.38-5.187c1.743-2.211,2.9-4.661,3.437-7.283
			c0.499-2.432,0.741-6.049,0.741-11.057v-9.649c0-8.139-1.385-13.609-4.235-16.727c-2.87-3.138-7.047-4.729-12.416-4.729
			c-2.808,0-5.341,0.616-7.578,1.838v-3.626h18.397h2.531v-2.531v-10.819V213.233L138.018,213.233z"/>
		<linearGradient id="SVGID_6_" gradientUnits="userSpaceOnUse" x1="164.8125" y1="212.6963" x2="164.8125" y2="283.3098">
			<stop  offset="0.2507" style="stop-color:#FFFFFF"/>
			<stop  offset="1" style="stop-color:#515257"/>
		</linearGradient>
		<path fill="url(#SVGID_6_)" d="M165.564,285.958c-4.693,0-8.614-0.667-11.657-1.983c-3.11-1.347-5.552-3.32-7.254-5.868
			c-1.683-2.516-2.68-5.204-2.964-7.99c-0.271-2.652-0.403-7.628-0.403-15.209v-9.357c0-8.164,0.117-13.481,0.359-16.256
			c0.255-2.927,1.307-5.728,3.128-8.324c1.831-2.612,4.357-4.596,7.51-5.896c3.077-1.269,6.662-1.912,10.654-1.912
			c4.911,0,9.023,0.818,12.225,2.434c3.28,1.655,5.666,4.032,7.093,7.066c1.383,2.942,2.083,6.665,2.083,11.065v1.266H166.93v-1.266
			c0-3.851-0.054-5.305-0.1-5.847c-0.043-0.508-0.235-0.904-0.604-1.248c-0.359-0.333-0.877-0.496-1.582-0.496
			c-0.538,0-0.938,0.142-1.259,0.446c-0.337,0.32-0.52,0.719-0.572,1.255c-0.079,0.79-0.119,2.448-0.119,4.929v6.956
			c0.581-0.526,1.227-0.981,1.933-1.364c1.852-1.002,4.134-1.511,6.785-1.511c3.344,0,6.344,0.922,8.918,2.738
			c2.602,1.837,4.285,4.097,5.003,6.716c0.667,2.438,1.005,5.741,1.005,9.817v5.389c0,4.775-0.188,8.396-0.558,10.765
			c-0.396,2.521-1.46,4.879-3.166,7.008c-1.706,2.128-4.06,3.797-6.997,4.96C172.737,285.38,169.355,285.958,165.564,285.958z
			 M164.812,249.823c-0.941,0-1.298,0.369-1.503,0.69c-0.186,0.289-0.615,1.289-0.615,4.31v12.24c0,3.737,0.427,4.901,0.61,5.229
			c0.203,0.362,0.536,0.732,1.466,0.732c0.492,0,1.035-0.4,1.403-0.736c0.077-0.07,0.756-0.805,0.756-4.808v-12.658
			c0-2.822-0.386-3.895-0.616-4.283C166.104,250.186,165.76,249.823,164.812,249.823z"/>
		<path fill="#010202" d="M164.938,214.428c4.734,0,8.619,0.767,11.655,2.298c3.035,1.531,5.207,3.69,6.517,6.475
			c1.309,2.785,1.963,6.294,1.963,10.527h-16.877c0-3.146-0.035-5.131-0.104-5.953c-0.07-0.821-0.404-1.51-1.003-2.067
			c-0.6-0.557-1.414-0.836-2.444-0.836c-0.863,0-1.573,0.266-2.13,0.794c-0.558,0.529-0.877,1.212-0.961,2.047
			c-0.084,0.836-0.125,2.521-0.125,5.055v10.778c0.862-1.811,2.13-3.168,3.801-4.073s3.731-1.357,6.183-1.357
			c3.092,0,5.82,0.835,8.188,2.506c2.366,1.671,3.87,3.677,4.512,6.016c0.64,2.34,0.96,5.501,0.96,9.483v5.389
			c0,4.734-0.181,8.258-0.543,10.568c-0.362,2.312-1.33,4.449-2.903,6.413c-1.573,1.963-3.732,3.488-6.475,4.574
			c-2.743,1.086-5.939,1.629-9.587,1.629c-4.54,0-8.258-0.627-11.154-1.88s-5.132-3.056-6.705-5.41
			c-1.573-2.353-2.492-4.824-2.757-7.414c-0.265-2.591-0.396-7.617-0.396-15.081v-9.357c0-8.048,0.118-13.431,0.354-16.146
			c0.236-2.716,1.204-5.285,2.903-7.708c1.698-2.423,4.018-4.24,6.956-5.451C157.703,215.033,161.094,214.428,164.938,214.428
			 M164.771,274.291c0.724,0,1.476-0.355,2.256-1.065c0.779-0.71,1.169-2.625,1.169-5.744v-12.658c0-2.395-0.265-4.037-0.793-4.929
			c-0.529-0.892-1.394-1.337-2.59-1.337c-1.17,0-2.026,0.425-2.569,1.274s-0.814,2.514-0.814,4.991v12.24
			c0,2.98,0.257,4.93,0.772,5.849C162.716,273.831,163.572,274.291,164.771,274.291 M164.938,211.896
			c-4.158,0-7.905,0.676-11.137,2.008c-3.379,1.393-6.092,3.525-8.063,6.339c-1.95,2.781-3.079,5.79-3.353,8.941
			c-0.246,2.812-0.365,8.165-0.365,16.365v9.357c0,7.625,0.134,12.642,0.41,15.338c0.306,2.993,1.373,5.875,3.172,8.565
			c1.84,2.753,4.465,4.881,7.804,6.325c3.201,1.386,7.292,2.088,12.159,2.088c3.951,0,7.49-0.607,10.519-1.807
			c3.145-1.245,5.674-3.043,7.519-5.345c1.846-2.304,2.999-4.862,3.429-7.604c0.386-2.467,0.573-6.053,0.573-10.961v-5.389
			c0-4.248-0.343-7.569-1.05-10.151c-0.798-2.91-2.646-5.405-5.493-7.415c-1.463-1.033-3.051-1.799-4.749-2.294h8.761h2.531v-2.531
			c0-4.588-0.741-8.492-2.203-11.604c-1.55-3.297-4.13-5.873-7.667-7.659C174.354,212.761,170.048,211.896,164.938,211.896
			L164.938,211.896z M163.96,237.281v-4.515c0-3.037,0.062-4.288,0.112-4.803c0.032-0.317,0.128-0.409,0.186-0.463
			c0.036-0.034,0.103-0.099,0.387-0.099c0.35,0,0.612,0.059,0.722,0.159c0.136,0.127,0.187,0.231,0.203,0.428
			c0.043,0.516,0.095,1.932,0.095,5.738v2.531h0.756c-0.855,0.257-1.655,0.586-2.396,0.986
			C164.003,237.257,163.981,237.269,163.96,237.281L163.96,237.281z M164.438,271.72c-0.007-0.008-0.017-0.022-0.029-0.045
			c-0.045-0.087-0.449-0.97-0.449-4.611v-12.24c0-2.882,0.401-3.604,0.419-3.633c0.021-0.032,0.034-0.045,0.035-0.045
			c0,0,0.101-0.057,0.398-0.057c0.252,0,0.358,0.041,0.381,0.051c0.005,0.006,0.017,0.021,0.032,0.048
			c0.017,0.028,0.438,0.772,0.438,3.636v12.658c0,2.785-0.339,3.736-0.439,3.958c-0.279,0.237-0.44,0.305-0.485,0.319
			C164.572,271.756,164.476,271.733,164.438,271.72L164.438,271.72z"/>
	</g>
</g>
</svg>
